<svg xmlns="http://www.w3.org/2000/svg" xmlns:xlink="http://www.w3.org/1999/xlink" width="1280" zoomAndPan="magnify" viewBox="0 0 960 269.999989" height="360" preserveAspectRatio="xMidYMid meet" version="1.2"><defs><clipPath id="0100fdfbca"><path d="M 0 58.894531 L 960 58.894531 L 960 211.1875 L 0 211.1875 Z M 0 58.894531 "/></clipPath><clipPath id="e2eec4a533"><path d="M 224 80.707031 L 328 80.707031 L 328 189 L 224 189 Z M 224 80.707031 "/></clipPath><clipPath id="9d28ef7703"><path d="M 519 80.707031 L 623 80.707031 L 623 189 L 519 189 Z M 519 80.707031 "/></clipPath><clipPath id="d00d5edf16"><path d="M 719 80.707031 L 820 80.707031 L 820 188 L 719 188 Z M 719 80.707031 "/></clipPath><clipPath id="c600c13e13"><path d="M 809 80.707031 L 904 80.707031 L 904 188 L 809 188 Z M 809 80.707031 "/></clipPath><clipPath id="c77df78e67"><path d="M 718 193 L 889 193 L 889 247.207031 L 718 247.207031 Z M 718 193 "/></clipPath><clipPath id="180ebef68f"><path d="M 19.472656 48.3125 L 211.472656 48.3125 L 211.472656 221.5625 L 19.472656 221.5625 Z M 19.472656 48.3125 "/></clipPath></defs><g id="e56907b336"><g clip-rule="nonzero" clip-path="url(#0100fdfbca)"><path style=" stroke:none;fill-rule:nonzero;fill:#faba20;fill-opacity:1;" d="M 504.480469 64.871094 C 493.429688 64.746094 444.171875 61.585938 434.722656 61.171875 C 428.214844 60.886719 422.855469 61.808594 417.8125 61.742188 C 412.023438 61.675781 408.90625 62.371094 403.769531 62.371094 C 401.726562 61.847656 402.617188 61.4375 400.824219 61.371094 C 400.746094 61.90625 401.34375 61.894531 401.59375 62.160156 C 398.605469 61.445312 397.273438 63.078125 395.117188 62.597656 C 395.683594 62.558594 396.367188 62.601562 396.164062 62.03125 C 383.679688 63.363281 175.0625 58.871094 160.84375 59.144531 C 151.730469 59.320312 142.496094 60.386719 133.101562 60.125 C 131.316406 60.074219 129.832031 59.984375 128.039062 59.992188 C 103.703125 60.035156 63.511719 59.957031 45.289062 59.976562 C 44.550781 59.617188 42.808594 58.621094 42.34375 58.96875 C 42.738281 59.027344 43.234375 59.394531 42.742188 59.5 C 32.457031 59.578125 25.082031 59.988281 15.6875 59.929688 C 15.136719 61.015625 13.875 61.605469 13.320312 62.691406 C 13.910156 70.175781 14.351562 78.21875 15.667969 84.53125 C 18.886719 87.726562 19.40625 94.132812 22.160156 96.808594 C 22.476562 97.394531 23.875 97.113281 24.027344 97.839844 C 23.636719 99.375 26.875 101.101562 27.910156 102.605469 C 26.097656 103.328125 29.652344 104.394531 27.710938 105.316406 C 29.734375 106.023438 31.246094 107.160156 31.890625 108.992188 C 33.917969 109.429688 37.277344 110.714844 38.253906 112.886719 C 39.277344 112.90625 40.714844 112.585938 40.8125 113.359375 C 39.464844 113.980469 38.214844 114.671875 37.332031 115.613281 C 37.273438 115.1875 37.324219 114.675781 36.5625 114.816406 C 33.378906 115.261719 32.136719 116.628906 29.480469 117.164062 C 28.835938 117.300781 27.753906 116.996094 26.953125 117.230469 C 25.644531 117.613281 22.050781 119.203125 20.953125 119.546875 C 18.585938 120.296875 14.058594 120.980469 13.605469 123.523438 C 13.410156 124.617188 14.605469 125.628906 14.871094 126.738281 C 15.394531 128.921875 14.550781 131.332031 14.558594 133.777344 C 14.582031 139.613281 17.175781 145.550781 18.433594 150.710938 C 18.46875 152.148438 14.242188 153.378906 14.527344 151.890625 C 13.1875 152.183594 11.328125 153.722656 9.886719 152.824219 C 9.492188 153.742188 5.136719 153.273438 3.085938 153.808594 C 2.066406 154.742188 1.09375 155.710938 0.00390625 156.589844 C 1.804688 164.515625 -0.574219 177.289062 4.101562 183.796875 C 4.15625 187.339844 5.53125 189.804688 6.078125 192.9375 C 5.960938 193.695312 8.035156 192.675781 7.917969 193.429688 C 7.898438 197.953125 8.972656 202.988281 15.28125 202.167969 C 15.898438 204.214844 20.117188 202.246094 20.421875 203.65625 C 22.582031 203.3125 25.828125 204.394531 28.742188 203.984375 C 28.652344 204.347656 28.265625 204.511719 28.445312 205.070312 C 32.648438 203.464844 36.535156 205.738281 41.125 205.828125 C 42.007812 205.84375 42.8125 205.46875 43.632812 205.492188 C 58.917969 205.886719 90.285156 207.859375 104.773438 207.046875 C 105.027344 207.605469 105.394531 208.0625 106.625 207.816406 C 107.632812 207.785156 105.726562 207.101562 107.316406 207.257812 C 132.734375 207.710938 154.179688 207.667969 176.292969 207.644531 C 175.671875 207.644531 176.34375 207.394531 177 207.355469 C 187.234375 206.738281 399.554688 207.753906 410.570312 206.921875 C 418.335938 208.742188 428.234375 205.785156 436.542969 206.527344 C 435.90625 206.605469 434.71875 206.300781 435.132812 207.105469 C 442.664062 205.765625 449.414062 206.6875 457.492188 206.792969 C 457.8125 206.324219 458.59375 206.175781 459.253906 205.9375 C 464.429688 205.929688 478.074219 206.253906 484.171875 205.4375 C 484.25 205.753906 484.160156 206.207031 484.582031 206.238281 C 489.84375 204.667969 499.785156 205.234375 506.566406 205.671875 C 511.28125 204.257812 516.878906 205.148438 523.152344 205.242188 C 526.925781 205.300781 533.855469 204.128906 536.871094 205.160156 C 541.191406 204.273438 526.714844 205.0625 531.152344 205.25 C 532.53125 205.257812 532.851562 204.523438 533.988281 204.367188 C 539.292969 205.53125 545.976562 203.929688 552.734375 203.882812 C 565.683594 203.808594 579.9375 205.175781 589.570312 204.019531 C 590.710938 203.75 590.355469 204.699219 591.054688 204.792969 C 603.054688 203.609375 617.753906 205.070312 628.578125 204.367188 C 629.246094 204.578125 629.609375 205.03125 630.421875 205.132812 C 659.785156 205.203125 848.296875 206.386719 878.726562 207.695312 C 878.257812 208.144531 877.492188 208.394531 877.742188 209.34375 C 879.375 210.105469 879.628906 209.136719 881 209.53125 C 881.191406 210.039062 880.605469 211.167969 881.800781 210.863281 C 885.96875 210.792969 888.933594 211.222656 892.960938 210.304688 C 900.246094 212.195312 909.996094 210.421875 919.339844 210.703125 C 930.785156 211.050781 937.078125 210.1875 948.46875 210.589844 C 949.234375 210.722656 927.980469 211.222656 929.109375 211.0625 C 938.984375 209.417969 945.261719 211.4375 956.414062 210.449219 C 960.941406 209.113281 959.089844 205.757812 959.171875 201.996094 C 959.199219 200.546875 960.058594 199.140625 960.003906 197.644531 C 959.867188 194.089844 958.425781 190.253906 959.027344 187.125 C 958.769531 186.257812 958.242188 186.640625 957.898438 186.347656 C 959.402344 184.949219 956.882812 181.265625 959.339844 180.089844 C 956.363281 178.898438 957.996094 177.28125 957.945312 174.714844 C 955.398438 171.867188 956.507812 168.820312 955.191406 164.511719 C 953.796875 164.0625 953.289062 164.207031 953.292969 162.9375 C 951.820312 162.625 949.453125 163.480469 947.523438 163.085938 C 947.144531 163.007812 946.707031 162.3125 946.398438 162.304688 C 946.167969 162.300781 945.265625 162.851562 944.988281 162.882812 C 940.597656 163.324219 941.582031 163.277344 939.265625 162.125 C 939.25 161.855469 938.957031 161.816406 938.875 161.601562 C 939.144531 158.945312 939.984375 154.773438 938.339844 152.421875 C 939.730469 150.359375 939.410156 149.257812 939.09375 146.722656 C 940.6875 144.167969 944.261719 144.59375 947.9375 143.523438 C 948.183594 142.976562 948.042969 141.753906 948.957031 142.410156 C 949.375 140.972656 947.058594 140.417969 949.175781 139.96875 C 946.121094 135.574219 951.128906 129.421875 949.28125 123.207031 C 949.617188 122.917969 949.964844 122.640625 950.316406 122.367188 C 950.171875 119.847656 950.023438 117.324219 949.878906 114.804688 C 949.828125 114.300781 950.121094 114.226562 950.582031 114.519531 C 947.636719 112.265625 950.46875 107.804688 947.902344 105.664062 C 949.511719 103.527344 946.789062 102.199219 946.9375 101.363281 C 946.96875 101.160156 947.914062 101.429688 947.625 100.808594 C 947.472656 100.46875 946.734375 100.695312 946.511719 100.292969 C 945.945312 99.269531 945.367188 87.515625 943.417969 86.578125 C 944.800781 83.515625 944.832031 82.054688 914.746094 81.246094 C 913.050781 81.207031 910.082031 81.273438 908.117188 81.226562 C 904.070312 81.128906 921.234375 77.71875 922.550781 78.1875 C 922.550781 78.1875 917.4375 69.183594 917.460938 67.574219 C 916.9375 66.769531 916.621094 62.480469 916.277344 61.53125 C 911.914062 61.332031 906.777344 61.617188 902.382812 61.484375 C 901.445312 61.457031 896.992188 62.417969 896.050781 62.269531 C 892.988281 61.785156 845.242188 61.710938 841.734375 61.679688 C 819.082031 61.492188 755.011719 61.789062 737.839844 61.992188 C 730.21875 62.078125 722.433594 63.28125 715.074219 63.605469 C 703.199219 64.132812 692.136719 66.019531 680.789062 64.398438 C 675.9375 66.304688 594.566406 61.300781 588.109375 61.5625 C 580.90625 61.855469 573.546875 61.957031 566.859375 62.382812 C 562.355469 62.660156 558.597656 62.40625 554.585938 62.425781 C 553.445312 62.429688 552.144531 63.074219 551.015625 63.058594 C 542.808594 62.945312 535.898438 62.152344 527.984375 62.351562 C 521.839844 62.503906 536.328125 62.0625 530.167969 62.984375 C 514.265625 61.867188 524.742188 65.199219 505.886719 64.023438 C 505.777344 64.417969 505.546875 64.601562 504.480469 64.871094 "/></g><g clip-rule="nonzero" clip-path="url(#e2eec4a533)"><path style=" stroke:none;fill-rule:nonzero;fill:#022d94;fill-opacity:1;" d="M 266.332031 188.847656 L 266.300781 188.847656 C 255.152344 188.847656 243.601562 188.585938 236.019531 185.34375 C 232.082031 183.679688 229.351562 181.441406 227.425781 178.3125 C 225.300781 174.867188 224.265625 170.386719 224.265625 164.675781 C 224.265625 160.3125 224.898438 155.203125 226.105469 149.429688 C 226.390625 148.109375 232.972656 117.394531 233.402344 115.757812 C 235.15625 109.355469 237.339844 104.074219 240.125 99.652344 C 244.925781 92.046875 251.332031 87.136719 260.269531 84.210938 C 267.710938 81.796875 277.191406 80.707031 290.957031 80.707031 L 291.070312 80.707031 C 298.3125 80.707031 304.257812 81.222656 309.257812 82.257812 C 315.148438 83.492188 319.660156 85.53125 322.648438 88.257812 C 324.890625 90.324219 326.324219 92.820312 326.929688 95.722656 C 327.246094 97.183594 327.390625 98.820312 327.390625 100.574219 C 327.390625 104.648438 326.554688 108.925781 325.894531 112.34375 C 325.808594 112.859375 325.695312 113.316406 325.609375 113.804688 L 325.578125 113.949219 L 298.914062 113.949219 L 298.941406 113.75 C 298.941406 113.75 299.03125 112.945312 299.058594 112.570312 C 299.058594 112.542969 299.171875 111.480469 299.171875 109.929688 C 299.171875 107.605469 298.082031 105.796875 295.867188 104.390625 C 294.117188 103.386719 291.847656 103.042969 289.691406 102.78125 C 287.390625 102.496094 284.804688 102.46875 282.363281 102.46875 C 277.882812 102.46875 274.492188 102.8125 271.703125 103.585938 C 269.492188 104.191406 267.625 105.078125 266.074219 106.257812 C 263.859375 107.921875 262.136719 110.332031 260.8125 113.605469 C 259.578125 116.648438 258.6875 120.292969 257.710938 124.800781 L 254.121094 142.023438 C 252.941406 147.566406 252.109375 151.757812 252.109375 155.375 C 252.109375 157.46875 252.394531 159.105469 253 160.570312 C 253.945312 162.894531 255.957031 164.703125 258.6875 165.679688 C 261.304688 166.628906 264.636719 167.058594 269.464844 167.058594 C 272.679688 167.058594 275.324219 167 277.738281 166.714844 C 281.90625 166.226562 284.894531 164.960938 287.132812 162.78125 C 289.574219 160.425781 291.214844 156.925781 292.304688 151.785156 L 292.679688 150.035156 L 319.054688 150.035156 L 319.054688 150.207031 C 319.054688 150.40625 317.5625 157.324219 316.785156 160.109375 C 315.980469 163.011719 315.121094 165.449219 314.113281 167.632812 C 311.558594 173.199219 307.992188 177.507812 302.878906 181.152344 C 297.9375 184.597656 292.679688 186.722656 286.328125 187.839844 C 280.871094 188.789062 275.265625 188.875 269.0625 188.875 C 269.0625 188.875 266.648438 188.847656 266.332031 188.847656 Z M 266.332031 188.847656 "/></g><g clip-rule="nonzero" clip-path="url(#9d28ef7703)"><path style=" stroke:none;fill-rule:nonzero;fill:#022d94;fill-opacity:1;" d="M 561.792969 188.847656 C 550.617188 188.847656 539.066406 188.585938 531.480469 185.34375 C 527.542969 183.679688 524.8125 181.441406 522.890625 178.3125 C 520.761719 174.867188 519.726562 170.386719 519.726562 164.675781 C 519.726562 160.3125 520.359375 155.203125 521.566406 149.429688 C 521.855469 148.109375 528.433594 117.394531 528.867188 115.757812 C 530.589844 109.355469 532.800781 104.074219 535.589844 99.652344 C 540.386719 92.046875 546.796875 87.136719 555.730469 84.210938 C 563.171875 81.796875 572.65625 80.707031 586.417969 80.707031 L 586.53125 80.707031 C 593.773438 80.707031 599.722656 81.222656 604.722656 82.257812 C 610.613281 83.492188 615.121094 85.53125 618.109375 88.257812 C 620.351562 90.324219 621.789062 92.820312 622.390625 95.722656 C 622.707031 97.183594 622.851562 98.820312 622.851562 100.574219 C 622.851562 104.648438 622.019531 108.925781 621.359375 112.371094 C 621.269531 112.859375 621.15625 113.347656 621.070312 113.835938 L 621.042969 113.980469 L 594.378906 113.980469 L 594.40625 113.777344 C 594.40625 113.777344 594.492188 112.972656 594.519531 112.601562 C 594.519531 112.570312 594.636719 111.507812 594.636719 109.960938 C 594.636719 107.632812 593.542969 105.824219 591.332031 104.417969 C 589.578125 103.414062 587.308594 103.070312 585.152344 102.8125 C 582.855469 102.523438 580.269531 102.496094 577.828125 102.496094 C 573.34375 102.496094 569.953125 102.839844 567.167969 103.617188 C 564.953125 104.21875 563.117188 105.109375 561.535156 106.285156 C 559.324219 107.949219 557.597656 110.363281 556.277344 113.632812 C 555.042969 116.675781 554.152344 120.324219 553.171875 124.828125 L 549.523438 141.996094 C 548.347656 147.535156 547.511719 151.726562 547.511719 155.34375 C 547.511719 157.441406 547.800781 159.078125 548.402344 160.542969 C 549.351562 162.867188 551.363281 164.675781 554.09375 165.652344 C 556.707031 166.597656 560.042969 167.027344 564.867188 167.027344 C 568.085938 167.027344 570.730469 166.972656 573.144531 166.683594 C 577.308594 166.195312 580.296875 164.933594 582.539062 162.75 C 584.980469 160.398438 586.621094 156.894531 587.710938 151.757812 L 588.085938 150.003906 L 614.460938 150.003906 L 614.460938 150.179688 C 614.460938 150.378906 612.96875 157.296875 612.191406 160.082031 C 611.386719 162.980469 610.523438 165.421875 609.519531 167.601562 C 606.960938 173.199219 603.398438 177.476562 598.285156 181.125 C 593.34375 184.570312 588.085938 186.691406 581.734375 187.8125 C 576.273438 188.761719 562.109375 188.847656 561.792969 188.847656 Z M 561.792969 188.847656 "/></g><path style=" stroke:none;fill-rule:nonzero;fill:#022d94;fill-opacity:1;" d="M 504.558594 187.984375 L 427.839844 187.984375 L 427.898438 187.785156 L 449.359375 86.90625 C 449.734375 85.042969 450.425781 83.777344 451.542969 82.917969 C 452.695312 82.027344 454.273438 81.597656 456.371094 81.597656 L 521.109375 81.597656 C 522.714844 81.597656 523.867188 81.96875 524.554688 82.660156 C 525.074219 83.203125 525.359375 83.980469 525.359375 84.925781 L 525.359375 85.011719 C 525.359375 85.414062 525.300781 85.789062 525.214844 86.191406 L 521.882812 101.921875 L 471.773438 101.921875 L 467.433594 122.792969 L 514.46875 122.792969 L 510.1875 142.457031 L 463.152344 142.457031 L 457.808594 167.632812 L 508.953125 167.632812 Z M 504.558594 187.984375 "/><path style=" stroke:none;fill-rule:nonzero;fill:#022d94;fill-opacity:1;" d="M 642.132812 187.984375 L 616.558594 187.984375 L 616.617188 187.785156 L 637.992188 87.28125 C 638.511719 85.097656 639.316406 83.605469 640.523438 82.6875 C 641.472656 81.96875 642.675781 81.625 644.230469 81.625 L 659.371094 81.625 C 661.007812 81.625 662.214844 82 662.992188 82.746094 C 663.59375 83.320312 663.910156 84.179688 663.910156 85.183594 C 663.910156 85.5 663.882812 85.816406 663.824219 86.132812 Z M 642.132812 187.984375 "/><path style=" stroke:none;fill-rule:nonzero;fill:#022d94;fill-opacity:1;" d="M 712.554688 187.984375 L 680.316406 187.984375 L 680.261719 187.871094 L 656.382812 132.695312 L 656.46875 132.609375 L 697.757812 87.828125 C 700.316406 85.042969 701.808594 83.636719 703.160156 82.804688 C 704.597656 81.914062 705.863281 81.597656 707.929688 81.597656 L 728.734375 81.597656 C 729.710938 81.597656 730.3125 81.914062 730.660156 82.199219 C 730.859375 82.371094 731.003906 82.542969 731.089844 82.714844 C 731.148438 82.832031 731.203125 82.976562 731.203125 83.148438 L 731.234375 83.148438 L 731.203125 83.492188 C 731.175781 83.921875 730.945312 84.640625 730.082031 85.585938 L 685.519531 133.441406 Z M 712.554688 187.984375 "/><path style=" stroke:none;fill-rule:nonzero;fill:#022d94;fill-opacity:1;" d="M 389.136719 187.984375 L 388.933594 187.984375 L 388.992188 187.785156 L 398.074219 144.808594 L 355.921875 144.808594 L 346.726562 187.984375 L 321.152344 187.984375 L 321.210938 187.785156 C 322.074219 183.707031 342.386719 87.882812 342.53125 87.339844 C 343.277344 84.179688 344.542969 83.089844 345.546875 82.515625 C 346.640625 81.882812 348.164062 81.597656 350.316406 81.597656 L 364.136719 81.597656 C 364.855469 81.597656 366.035156 81.914062 366.925781 82.542969 C 367.414062 82.890625 367.789062 83.289062 368.015625 83.722656 C 368.304688 84.238281 368.449219 84.8125 368.449219 85.472656 C 368.449219 85.757812 368.417969 86.074219 368.363281 86.390625 C 368.246094 86.992188 361.238281 119.75 360.546875 122.992188 L 402.726562 122.992188 C 406.144531 106.832031 410.253906 87.566406 410.3125 87.339844 C 411.058594 84.179688 412.324219 83.089844 413.328125 82.515625 C 414.421875 81.882812 415.945312 81.597656 418.097656 81.597656 L 431.921875 81.597656 C 432.636719 81.597656 433.816406 81.914062 434.707031 82.542969 C 435.195312 82.890625 435.570312 83.289062 435.800781 83.722656 C 436.085938 84.238281 436.230469 84.8125 436.230469 85.472656 C 436.230469 85.757812 436.203125 86.074219 436.144531 86.390625 C 436.027344 87.023438 415.425781 183.707031 414.535156 187.839844 L 414.507812 187.984375 Z M 389.136719 187.984375 "/><g clip-rule="nonzero" clip-path="url(#d00d5edf16)"><path style=" stroke:none;fill-rule:nonzero;fill:#022d94;fill-opacity:1;" d="M 787.980469 102.382812 C 789.964844 102.898438 791.515625 103.875 792.347656 105.511719 C 792.894531 106.601562 793.152344 107.863281 793.152344 109.386719 C 793.152344 110.9375 792.894531 112.746094 792.464844 114.867188 C 791.859375 117.652344 791.285156 119.949219 790.394531 121.929688 C 789.503906 123.910156 788.296875 125.546875 786.542969 126.925781 C 783.039062 129.679688 777.578125 131.347656 767.894531 133.527344 C 755.082031 136.371094 746.261719 138.722656 740.023438 141.824219 C 733.789062 144.925781 730.167969 148.628906 727.441406 154.484375 C 725.628906 158.386719 724.25 163.269531 722.929688 169.441406 L 719.308594 187.8125 L 802.261719 187.8125 L 806.140625 169.210938 L 748.414062 169.210938 C 748.414062 169.210938 749.304688 164.730469 750.054688 163.097656 C 751 160.972656 752.238281 159.394531 753.847656 158.214844 C 755.453125 157.039062 757.410156 156.265625 759.765625 155.605469 C 764.507812 154.28125 771.058594 153.394531 780.683594 150.953125 C 792.550781 147.882812 800.566406 144.523438 806.226562 139.097656 C 811.886719 133.671875 815.335938 126.035156 817.863281 114.066406 C 818.8125 109.644531 819.328125 105.28125 819.328125 101.980469 C 819.328125 97.242188 818.410156 93.597656 816.769531 90.8125 C 815.132812 88.027344 812.777344 86.019531 809.675781 84.523438 C 803.527344 81.570312 794.472656 80.878906 783.757812 80.878906 C 770.109375 80.878906 759.363281 82.285156 751.375 87.195312 C 743.386719 92.074219 737.839844 100.972656 734.738281 115.472656 L 733.875 119.578125 L 759.105469 119.578125 L 760.082031 115.039062 C 761.058594 110.707031 761.976562 107.75 763.617188 105.652344 C 765.253906 103.527344 767.636719 102.523438 770.855469 102.121094 C 773.039062 101.835938 775.65625 101.777344 778.902344 101.777344 L 780.394531 101.777344 C 783.527344 101.722656 786 101.863281 787.980469 102.382812 Z M 787.980469 102.382812 "/></g><g clip-rule="nonzero" clip-path="url(#c600c13e13)"><path style=" stroke:none;fill-rule:nonzero;fill:#022d94;fill-opacity:1;" d="M 857.574219 92.132812 C 854.640625 95.175781 830.015625 120.898438 819.933594 131.460938 C 817.921875 133.613281 815.765625 135.996094 814.816406 137.976562 C 814.042969 139.414062 813.035156 143.402344 812.519531 146.246094 C 811.457031 152.1875 810.652344 157.613281 810.164062 159.824219 C 810.046875 160.398438 809.992188 160.914062 809.992188 161.402344 C 809.992188 163.238281 810.765625 164.445312 811.800781 165.335938 C 812.804688 166.195312 814.183594 166.597656 815.535156 166.597656 L 864.410156 166.597656 L 859.898438 187.8125 L 885.617188 185.371094 L 889.609375 166.570312 L 898.804688 166.570312 L 902.796875 147.765625 L 893.605469 147.765625 C 893.605469 147.765625 902.796875 104.878906 903.085938 103.269531 C 906.246094 85.902344 899.035156 80.820312 882.773438 80.820312 C 878.632812 80.910156 869.238281 80.046875 857.574219 92.132812 Z M 868.375 147.824219 L 831.453125 147.824219 L 875.386719 102.351562 L 878.058594 102.351562 Z M 868.375 147.824219 "/></g><g clip-rule="nonzero" clip-path="url(#c77df78e67)"><path style=" stroke:none;fill-rule:nonzero;fill:#022d94;fill-opacity:1;" d="M 799.992188 247.207031 C 783.382812 247.207031 767.4375 242.785156 753.875 234.402344 C 740.542969 226.195312 732.785156 216.492188 729.105469 211.007812 L 724.25 223.496094 C 723.820312 224.644531 722.613281 225.359375 721.320312 225.160156 C 720.054688 224.929688 719.109375 223.839844 719.109375 222.578125 L 718.847656 198.089844 L 718.847656 198.0625 C 718.847656 197.371094 719.136719 196.710938 719.625 196.253906 C 720.140625 195.765625 720.804688 195.476562 721.519531 195.476562 L 746.488281 195.476562 C 747.726562 195.507812 748.789062 196.425781 749.019531 197.628906 C 749.046875 197.800781 749.078125 197.945312 749.078125 198.117188 C 749.078125 199.210938 748.386719 200.183594 747.382812 200.585938 L 735.226562 205.296875 C 745.886719 214.796875 767.867188 230.070312 798.726562 230.070312 C 801.371094 230.070312 804.042969 229.953125 806.6875 229.726562 C 819.703125 228.632812 832.832031 225.417969 844.671875 220.480469 C 855.042969 216.144531 864.179688 210.632812 871.164062 204.492188 L 858.605469 200.789062 C 857.484375 200.472656 856.683594 199.4375 856.683594 198.261719 L 856.683594 198.003906 C 856.796875 196.742188 857.832031 195.734375 859.09375 195.621094 L 883.433594 193.410156 C 883.546875 193.410156 883.632812 193.382812 883.691406 193.382812 C 884.324219 193.382812 884.925781 193.613281 885.386719 193.984375 C 885.933594 194.445312 886.277344 195.105469 886.335938 195.792969 C 887.675781 211.734375 888.34375 219.734375 888.34375 219.792969 C 888.34375 220.96875 887.542969 222.03125 886.390625 222.347656 C 886.160156 222.40625 885.933594 222.433594 885.703125 222.433594 C 884.667969 222.433594 883.75 221.859375 883.289062 220.96875 L 877.398438 209.714844 C 872.6875 216.089844 864.46875 225.074219 851.597656 232.882812 C 838.550781 240.804688 823.984375 245.511719 808.296875 246.835938 L 806.714844 246.976562 C 804.503906 247.121094 802.234375 247.207031 799.992188 247.207031 Z M 799.992188 247.207031 "/></g><path style=" stroke:none;fill-rule:nonzero;fill:#ffffff;fill-opacity:1;" d="M 22.183594 145.78125 L 47.171875 108.960938 C 47.171875 108.960938 131.53125 57.167969 153.921875 50.566406 C 153.921875 50.566406 206.496094 129.777344 208.695312 156.78125 C 208.695312 156.78125 144.722656 204.988281 109.34375 218.792969 C 109.34375 218.792969 88.972656 217.382812 62.800781 188.621094 C 36.628906 159.859375 22.183594 145.78125 22.183594 145.78125 Z M 22.183594 145.78125 "/><path style=" stroke:none;fill-rule:nonzero;fill:#fcd116;fill-opacity:1;" d="M 181.851562 124.375 C 181.601562 128.121094 180.445312 131.625 178.386719 134.765625 C 178.0625 135.257812 177.128906 135.421875 176.851562 134.765625 C 176.230469 133.289062 175.976562 131.804688 175.921875 130.3125 C 175.382812 132.140625 174.90625 133.960938 174.769531 135.898438 C 174.578125 138.523438 170.738281 139.285156 170.03125 136.539062 C 169.984375 136.359375 169.941406 136.179688 169.902344 136 C 169.152344 139.015625 167.914062 142.035156 164.753906 142.699219 C 163.632812 142.9375 162.195312 142.164062 162.3125 140.835938 C 162.605469 137.492188 162.945312 134.152344 163.316406 130.824219 C 162.097656 135.65625 160.605469 140.421875 158.054688 144.734375 C 157.183594 146.210938 154.929688 145.714844 154.640625 144.136719 C 154.238281 145.21875 153.773438 146.28125 153.222656 147.316406 C 152.207031 149.238281 149.773438 148.074219 149.550781 146.320312 C 149.398438 145.109375 149.28125 143.898438 149.199219 142.691406 C 149.140625 142.839844 149.078125 142.980469 149.011719 143.125 C 148.199219 144.921875 145.453125 143.933594 145.453125 142.164062 C 145.453125 139.507812 145.484375 136.851562 145.449219 134.195312 C 144.671875 135.296875 142.679688 135.488281 142.4375 133.832031 C 142.320312 133.050781 142.214844 132.265625 142.097656 131.480469 C 141.058594 131.929688 139.582031 131.289062 139.242188 130.148438 C 138.882812 128.960938 138.652344 127.734375 138.386719 126.519531 C 137.8125 123.902344 141.828125 122.796875 142.402344 125.410156 C 142.410156 125.4375 142.414062 125.46875 142.421875 125.496094 C 142.75 125.347656 143.136719 125.300781 143.503906 125.351562 C 143.757812 123.894531 144.03125 122.445312 144.328125 120.996094 C 144.65625 119.375 147.175781 119.4375 147.542969 120.996094 C 147.921875 122.605469 148.222656 124.230469 148.460938 125.863281 C 148.882812 123.152344 149.546875 120.511719 150.761719 118 C 151.507812 116.460938 154.203125 117.167969 154.046875 118.890625 C 153.515625 124.738281 152.992188 130.640625 152.972656 136.53125 C 154.882812 128.28125 154.988281 119.464844 159.445312 112 C 160.527344 110.179688 162.984375 111.472656 162.667969 113.355469 C 161.601562 119.652344 160.234375 125.984375 159.308594 132.351562 C 159.890625 130.382812 160.394531 128.382812 160.890625 126.382812 C 162.289062 120.746094 163.828125 115.199219 166.308594 109.925781 C 167.019531 108.414062 169.789062 109.09375 169.566406 110.804688 C 168.699219 117.460938 167.910156 124.132812 167.191406 130.808594 C 167.363281 130.085938 167.535156 129.367188 167.707031 128.644531 C 168.832031 123.984375 170.332031 119.195312 170.875 114.421875 C 171.132812 112.148438 174.410156 111.367188 175.078125 113.851562 C 175.984375 117.203125 175.8125 120.429688 175.363281 123.796875 C 175.816406 122.472656 176.253906 121.15625 176.6875 119.871094 C 177.101562 118.65625 178.976562 118.828125 178.972656 120.179688 C 178.964844 124.125 177.429688 128.203125 178 132.113281 C 179.410156 129.746094 180.316406 127.160156 180.660156 124.367188 C 180.753906 123.632812 181.90625 123.597656 181.851562 124.375 Z M 181.851562 124.375 "/><g clip-rule="nonzero" clip-path="url(#180ebef68f)"><path style=" stroke:none;fill-rule:nonzero;fill:#000000;fill-opacity:1;" d="M 210.253906 147.796875 C 209.964844 147.324219 209.9375 146.796875 209.863281 146.261719 C 209.6875 144.96875 209.46875 143.617188 208.792969 142.539062 C 208.179688 141.5625 207.722656 140.570312 207.394531 139.5 C 207.214844 138.917969 206.960938 138.363281 206.554688 137.933594 C 205.570312 136.898438 205.105469 135.632812 204.8125 134.285156 C 204.660156 133.578125 204.511719 132.773438 204.011719 132.335938 C 203.125 131.5625 202.890625 130.523438 202.542969 129.535156 C 202.09375 128.246094 201.226562 127.144531 200.933594 125.789062 C 200.886719 125.574219 200.710938 125.359375 200.539062 125.195312 C 199.785156 124.488281 199.296875 123.660156 199.117188 122.617188 C 199.050781 122.242188 198.738281 121.890625 198.480469 121.570312 C 198.027344 121.011719 197.703125 120.382812 197.390625 119.738281 C 196.175781 117.226562 195.125 114.640625 193.691406 112.230469 C 193.03125 111.117188 192.316406 110.019531 191.640625 108.925781 C 191.164062 108.148438 191.101562 107.234375 190.550781 106.554688 C 190.003906 105.875 189.429688 105.285156 189.363281 104.3125 C 189.316406 103.660156 188.480469 103.308594 188.253906 102.734375 C 187.585938 101.027344 186.90625 99.363281 185.546875 98.070312 C 185.265625 96.019531 182.875 95.027344 182.914062 92.8125 C 182.914062 92.714844 182.8125 92.59375 182.734375 92.511719 C 181.535156 91.179688 180.816406 89.582031 180.207031 87.921875 C 180.085938 87.597656 179.9375 87.214844 179.683594 87.011719 C 178.167969 85.800781 177.59375 84.019531 176.800781 82.367188 C 176.519531 81.769531 176.328125 80.996094 175.753906 80.746094 C 174.359375 80.144531 174.082031 78.839844 173.667969 77.664062 C 173.488281 77.15625 173.238281 76.714844 173.011719 76.246094 C 172.277344 74.722656 170.796875 73.59375 170.621094 71.773438 C 169.367188 70.664062 168.871094 68.984375 167.71875 67.824219 C 167.234375 67.332031 166.871094 66.882812 166.710938 66.226562 C 166.550781 65.542969 166.488281 64.738281 165.84375 64.332031 C 165.0625 63.84375 164.765625 63.105469 164.480469 62.324219 C 164.253906 61.703125 163.976562 61.074219 163.488281 60.648438 C 162.621094 59.886719 162.121094 58.847656 161.484375 57.9375 C 160.960938 57.191406 160.214844 56.457031 160.054688 55.519531 C 159.835938 54.226562 159.144531 53.242188 158.378906 52.261719 C 157.902344 51.652344 157.609375 50.9375 157.363281 50.199219 C 157.050781 49.265625 156.296875 48.757812 155.390625 48.582031 C 154.390625 48.386719 153.265625 48.324219 152.433594 48.921875 C 151.257812 49.777344 149.832031 50.003906 148.628906 50.742188 C 148.273438 50.957031 147.8125 51.136719 147.621094 51.457031 C 147.03125 52.453125 145.980469 52.636719 145.0625 52.921875 C 144.003906 53.246094 142.921875 53.523438 141.847656 53.8125 C 140.289062 54.238281 138.839844 54.792969 137.425781 55.5625 C 136.183594 56.238281 134.996094 57.050781 133.582031 57.382812 C 133.308594 57.449219 133.078125 57.6875 132.816406 57.828125 C 131.507812 58.507812 130.234375 59.28125 128.871094 59.816406 C 128.085938 60.125 127.523438 60.78125 126.667969 60.945312 C 124.175781 61.410156 121.980469 62.523438 120.027344 64.128906 C 119.792969 64.316406 119.585938 64.550781 119.277344 64.582031 C 116.953125 64.800781 115.566406 66.808594 113.527344 67.589844 C 112.261719 68.074219 111.4375 69.363281 110.085938 69.683594 C 108.222656 70.128906 106.761719 71.214844 105.308594 72.359375 C 104.441406 73.039062 103.628906 73.769531 102.347656 73.660156 C 101.828125 73.613281 101.199219 74 100.734375 74.34375 C 100.152344 74.777344 99.5 75.046875 98.894531 75.410156 C 97.601562 76.195312 96.480469 77.25 95.003906 77.753906 C 94.636719 77.878906 94.378906 78.292969 94.058594 78.558594 C 93.785156 78.785156 93.519531 79.066406 93.199219 79.1875 C 91.476562 79.851562 90.039062 80.941406 88.507812 81.9375 C 86.605469 83.175781 84.613281 84.433594 82.351562 85.0625 C 82.011719 85.15625 81.671875 85.292969 81.367188 85.472656 C 79.1875 86.796875 77.0625 88.203125 74.789062 89.375 C 74.109375 89.726562 73.425781 90.085938 73.023438 90.8125 C 72.824219 91.175781 72.507812 91.460938 72.023438 91.453125 C 71.257812 91.441406 70.675781 91.824219 70.109375 92.296875 C 69.84375 92.523438 69.507812 92.734375 69.179688 92.78125 C 67.515625 93.039062 66.332031 94.230469 64.925781 94.960938 C 62.902344 96.015625 61.308594 97.832031 58.996094 98.414062 C 58.78125 98.464844 58.558594 98.632812 58.40625 98.808594 C 57.316406 100.089844 55.585938 100.5625 54.519531 101.886719 C 54.308594 102.148438 53.953125 102.355469 53.625 102.453125 C 51.640625 103.039062 50.285156 104.65625 48.480469 105.535156 C 48.175781 105.683594 47.894531 105.960938 47.683594 106.238281 C 47.054688 107.058594 46.242188 107.660156 45.417969 108.238281 C 44.648438 108.78125 44.054688 109.394531 44 110.382812 C 43.980469 110.695312 43.828125 110.933594 43.625 111.164062 C 42.542969 112.398438 41.667969 113.777344 40.992188 115.273438 C 40.832031 115.621094 40.582031 115.851562 40.3125 116.082031 C 39.855469 116.464844 39.484375 116.890625 39.195312 117.433594 C 38.898438 117.992188 38.417969 118.464844 37.765625 118.710938 C 37.441406 118.832031 37.054688 119.03125 36.902344 119.308594 C 36.078125 120.832031 34.648438 121.890625 33.820312 123.398438 C 33.46875 124.039062 33.019531 124.574219 32.503906 125.074219 C 31.355469 126.199219 30.871094 127.804688 29.734375 128.949219 C 29.582031 129.101562 29.5 129.378906 29.476562 129.605469 C 29.289062 131.660156 27.824219 133.007812 26.578125 134.359375 C 25.238281 135.808594 24.53125 137.429688 23.917969 139.246094 C 23.488281 140.519531 22.421875 141.570312 21.992188 142.917969 C 21.035156 143.347656 20.828125 144.386719 20.207031 145.085938 C 19.566406 145.804688 19.488281 146.628906 19.792969 147.417969 C 20.457031 149.128906 21.105469 150.863281 22.640625 152.078125 C 23.53125 152.777344 24.226562 153.679688 24.871094 154.613281 C 25.859375 156.03125 26.96875 157.316406 28.339844 158.414062 C 29.207031 159.101562 29.796875 160.128906 30.917969 160.539062 C 31.066406 160.589844 31.207031 160.765625 31.277344 160.917969 C 32.230469 163.050781 34.292969 164.183594 35.699219 165.898438 C 36.535156 166.914062 37.566406 167.695312 38.4375 168.65625 C 40.855469 171.332031 43.21875 174.070312 46.007812 176.394531 C 47.050781 177.261719 48.167969 178.113281 49.046875 179.097656 C 50.402344 180.609375 51.898438 181.957031 53.375 183.316406 C 54.421875 184.28125 55.316406 185.355469 56.246094 186.417969 C 57.207031 187.511719 57.890625 188.808594 59.203125 189.667969 C 60.183594 190.3125 61.261719 191.058594 61.691406 192.359375 C 61.894531 192.964844 62.496094 193.367188 63.171875 193.539062 C 63.9375 193.734375 64.550781 194.113281 64.902344 194.886719 C 65.039062 195.195312 65.40625 195.386719 65.628906 195.664062 C 66.59375 196.871094 67.839844 197.796875 68.933594 198.875 C 69.859375 199.785156 70.609375 200.980469 71.746094 201.566406 C 73.109375 202.265625 74.257812 203.109375 75.183594 204.300781 C 75.363281 204.53125 75.625 204.699219 75.867188 204.871094 C 77.488281 206.042969 78.929688 207.433594 80.707031 208.417969 C 81.609375 208.917969 82.472656 209.628906 83.144531 210.488281 C 83.40625 210.824219 83.746094 211.117188 84.160156 211.179688 C 84.8125 211.28125 85.21875 211.675781 85.558594 212.175781 C 85.839844 212.59375 86.296875 212.765625 86.699219 213.011719 C 88.285156 213.976562 90.070312 214.578125 91.464844 215.921875 C 93.070312 217.464844 95.152344 218.335938 97.175781 219.15625 C 98.773438 219.804688 100.328125 220.867188 102.230469 220.507812 C 102.367188 220.480469 102.574219 220.578125 102.691406 220.683594 C 103.636719 221.550781 104.757812 221.4375 105.894531 221.308594 C 106.1875 221.273438 106.484375 221.214844 106.769531 221.246094 C 108.421875 221.410156 109.910156 220.953125 111.335938 220.15625 C 112.003906 219.785156 112.742188 219.320312 113.460938 219.300781 C 115.234375 219.257812 116.363281 218.050781 117.695312 217.234375 C 119.226562 216.296875 120.421875 214.75 122.445312 214.761719 C 122.546875 214.761719 122.648438 214.632812 122.757812 214.601562 C 124.203125 214.210938 125.414062 213.304688 126.761719 212.746094 C 128.84375 211.886719 130.519531 210.5 132.199219 209.085938 C 132.621094 208.738281 133.003906 208.335938 133.550781 208.269531 C 134.476562 208.148438 135.175781 207.613281 135.941406 207.160156 C 136.832031 206.632812 137.558594 205.753906 138.773438 205.816406 C 139.152344 205.835938 139.503906 205.46875 139.789062 205.144531 C 139.984375 204.929688 140.210938 204.652344 140.464844 204.59375 C 142.410156 204.175781 143.742188 202.78125 145.1875 201.601562 C 146.027344 200.90625 146.90625 200.359375 147.878906 199.894531 C 149.796875 198.988281 151.453125 197.605469 153.414062 196.761719 C 153.859375 196.566406 154.117188 196.121094 154.351562 195.707031 C 154.511719 195.425781 154.722656 195.316406 155.015625 195.199219 C 156.410156 194.621094 157.816406 194.054688 159.148438 193.34375 C 159.871094 192.957031 160.660156 192.667969 161.289062 192.082031 C 162.757812 190.710938 164.738281 190.066406 166.195312 188.65625 C 166.386719 188.472656 166.75 188.480469 167.019531 188.371094 C 167.292969 188.265625 167.671875 188.191406 167.800781 187.980469 C 168.507812 186.808594 169.714844 186.527344 170.867188 186.097656 C 171.351562 185.917969 171.761719 185.519531 172.203125 185.246094 C 173.890625 184.199219 175.609375 183.195312 177.390625 182.324219 C 178.085938 181.984375 178.792969 181.71875 179.390625 181.203125 C 180.058594 180.617188 180.808594 180.144531 181.546875 179.648438 C 183.695312 178.207031 185.675781 176.550781 188.121094 175.53125 C 189.675781 174.886719 191.1875 173.871094 192.375 172.675781 C 193.644531 171.40625 194.992188 170.390625 196.574219 169.609375 C 196.878906 169.460938 197.089844 169.121094 197.355469 168.878906 C 197.574219 168.679688 197.78125 168.433594 198.042969 168.3125 C 199.664062 167.578125 201.355469 166.957031 202.230469 165.214844 C 202.253906 165.175781 202.332031 165.160156 202.382812 165.132812 C 204.617188 163.957031 206.035156 161.636719 208.480469 160.75 C 208.734375 160.65625 208.964844 160.386719 209.121094 160.144531 C 210.386719 158.167969 211.15625 156.007812 211.46875 153.507812 C 210.882812 151.746094 211.359375 149.613281 210.253906 147.796875 Z M 32.726562 133.425781 C 33.523438 132.382812 34.4375 131.441406 34.683594 130.070312 C 34.726562 129.84375 35.082031 129.664062 35.308594 129.484375 C 36.054688 128.882812 36.777344 128.261719 37.234375 127.183594 C 38.945312 128.78125 39.78125 130.722656 40.917969 132.453125 C 41.308594 133.050781 41.730469 133.570312 42.261719 134.074219 C 43.363281 135.125 44.480469 136.207031 45.175781 137.613281 C 45.546875 138.367188 45.988281 139.019531 46.738281 139.503906 C 47.316406 139.875 47.761719 140.484375 48.207031 141.03125 C 48.917969 141.90625 49.804688 142.601562 50.566406 143.390625 C 51.554688 144.410156 52.738281 145.425781 53.175781 146.890625 C 53.425781 147.726562 53.910156 148.367188 54.496094 148.976562 C 55.117188 149.617188 55.714844 150.28125 56.3125 150.945312 C 57.070312 151.785156 57.671875 152.738281 58.339844 153.632812 C 59.824219 155.613281 61.144531 157.777344 63.253906 159.21875 C 63.769531 159.574219 63.945312 160.175781 64.3125 160.636719 C 64.941406 161.417969 65.558594 162.152344 66.421875 162.761719 C 67.113281 163.25 67.238281 164.476562 67.878906 165.113281 C 68.816406 166.042969 69.691406 166.953125 70.089844 168.246094 C 70.140625 168.410156 70.242188 168.585938 70.378906 168.691406 C 72.5 170.320312 73.40625 172.925781 75.28125 174.753906 C 75.535156 175 75.761719 175.289062 75.945312 175.59375 C 77.074219 177.433594 78.707031 178.824219 80.136719 180.394531 C 80.574219 180.875 81.011719 181.375 81.351562 181.929688 C 82.285156 183.441406 83.402344 184.804688 84.582031 186.128906 C 85.089844 186.699219 85.417969 187.429688 85.84375 188.074219 C 86.398438 188.917969 86.902344 189.816406 87.820312 190.339844 C 88.324219 190.625 88.5 191.136719 88.734375 191.617188 C 89.652344 193.492188 90.683594 195.285156 92.394531 196.574219 C 92.535156 196.679688 92.675781 196.820312 92.738281 196.980469 C 93.523438 198.960938 95.3125 200.214844 96.367188 202.007812 C 96.625 202.441406 97.117188 202.78125 97.574219 203.046875 C 98.917969 203.835938 99.535156 205.015625 99.75 206.933594 C 98.972656 205.601562 98.109375 204.894531 97.3125 204.125 C 96.386719 203.238281 95.3125 202.472656 94.808594 201.203125 C 94.664062 200.84375 94.28125 200.566406 93.980469 200.277344 C 92.691406 199.054688 91.558594 197.679688 90.148438 196.570312 C 89.648438 196.179688 89.3125 195.585938 88.882812 195.097656 C 87.503906 193.535156 85.996094 192.136719 84.351562 190.835938 C 83.070312 189.824219 82.078125 188.40625 81.070312 187.089844 C 80.417969 186.238281 79.722656 185.425781 78.976562 184.660156 C 77.363281 183.007812 76.019531 181.101562 74.398438 179.507812 C 72.988281 178.117188 71.570312 176.757812 70.265625 175.261719 C 69.148438 173.976562 67.773438 172.910156 66.605469 171.664062 C 65.992188 171.015625 65.332031 170.425781 64.699219 169.804688 C 63.65625 168.78125 62.671875 167.703125 61.359375 167 C 60.960938 166.785156 60.9375 166.289062 60.785156 165.925781 C 60.316406 164.804688 59.589844 163.867188 58.882812 162.910156 C 58.496094 162.386719 58.082031 161.75 57.53125 161.515625 C 56.207031 160.953125 55.222656 160.242188 54.523438 158.878906 C 53.921875 157.714844 52.757812 156.871094 52.007812 155.710938 C 51.082031 154.28125 49.902344 153.003906 48.582031 151.890625 C 47.488281 150.972656 46.503906 149.953125 45.59375 148.859375 C 45.554688 148.8125 45.527344 148.742188 45.484375 148.726562 C 44.066406 148.230469 43.671875 146.835938 42.859375 145.796875 C 40.730469 143.082031 38.285156 140.660156 35.730469 138.34375 C 34.894531 137.585938 34.097656 136.808594 33.144531 136.175781 C 32.042969 135.445312 31.925781 134.480469 32.726562 133.425781 Z M 97.820312 213.710938 C 96.292969 212.632812 94.519531 212.121094 92.878906 211.34375 C 91.628906 210.753906 90.710938 209.804688 89.585938 209.109375 C 89.089844 208.808594 88.6875 208.335938 88.101562 208.175781 C 87.871094 208.109375 87.640625 208.074219 87.496094 207.851562 C 86.578125 206.417969 84.785156 206.191406 83.644531 205.054688 C 82.507812 203.925781 81.351562 202.796875 80.011719 201.910156 C 78.824219 201.128906 77.847656 200.066406 76.554688 199.441406 C 76.398438 199.367188 76.238281 199.238281 76.152344 199.089844 C 74.796875 196.785156 72.351562 195.582031 70.617188 193.640625 C 69.757812 192.675781 68.722656 191.679688 67.464844 191.113281 C 66.96875 190.890625 66.726562 190.523438 66.59375 190.0625 C 66.355469 189.25 65.789062 188.574219 65.070312 188.417969 C 63.488281 188.066406 62.882812 186.78125 62.035156 185.699219 C 61.746094 185.324219 61.492188 184.921875 61.050781 184.6875 C 58.914062 183.5625 57.394531 181.753906 56.035156 179.859375 C 54.109375 177.175781 51.5625 175.125 49.214844 172.871094 C 48.488281 172.167969 47.859375 171.386719 47.15625 170.675781 C 45.953125 169.460938 44.71875 168.265625 43.628906 166.929688 C 42.621094 165.691406 41.429688 164.601562 40.296875 163.464844 C 39.085938 162.253906 37.851562 161.074219 36.636719 159.863281 C 36.054688 159.277344 35.589844 158.574219 34.761719 158.257812 C 34.503906 158.164062 34.253906 157.90625 34.121094 157.65625 C 33.011719 155.570312 31.035156 154.222656 29.660156 152.355469 C 29.125 151.628906 28.214844 151.175781 27.457031 150.621094 C 26.867188 150.191406 26.339844 149.699219 26.085938 149.007812 C 25.871094 148.429688 25.515625 147.988281 24.847656 147.683594 C 25.484375 146.710938 26.066406 146.015625 25.980469 145.035156 C 25.945312 144.652344 26.179688 144.375 26.417969 144.097656 C 27.007812 143.414062 27.539062 142.707031 27.484375 141.722656 C 27.472656 141.5625 27.550781 141.316406 27.671875 141.246094 C 28.699219 140.640625 28.988281 139.429688 29.777344 138.667969 C 30.269531 138.714844 30.351562 139.09375 30.476562 139.410156 C 31.03125 140.789062 32.222656 141.671875 33.207031 142.652344 C 35.105469 144.535156 36.703125 146.667969 38.496094 148.625 C 38.613281 148.753906 38.675781 148.980469 38.816406 149.042969 C 41.113281 150.074219 42.050781 152.496094 43.890625 154.027344 C 45.046875 154.988281 45.90625 156.339844 47.035156 157.390625 C 47.164062 157.507812 47.230469 157.710938 47.371094 157.800781 C 49.371094 159.089844 50.828125 161 52.699219 162.429688 C 53.070312 162.714844 53.253906 163.007812 53.28125 163.457031 C 53.347656 164.53125 53.902344 165.335938 54.679688 166.046875 C 55.679688 166.96875 56.558594 168.007812 57.808594 168.65625 C 58.417969 168.976562 58.804688 169.59375 59.195312 170.210938 C 60.308594 171.949219 61.402344 173.71875 63.042969 175.046875 C 63.410156 175.34375 63.722656 175.710938 64.015625 176.082031 C 65.328125 177.707031 66.875 179.070312 68.546875 180.304688 C 68.785156 180.480469 69.128906 180.613281 69.230469 180.851562 C 69.824219 182.183594 70.871094 183.136719 71.8125 184.195312 C 74.191406 186.886719 76.308594 189.8125 78.851562 192.355469 C 81.199219 194.699219 83.398438 197.195312 86.167969 199.078125 C 86.40625 199.242188 86.644531 199.453125 86.785156 199.699219 C 87.703125 201.246094 89.050781 202.4375 90.097656 203.882812 C 90.234375 204.074219 90.371094 204.308594 90.5625 204.417969 C 92.324219 205.414062 93.402344 207.089844 94.722656 208.527344 C 94.84375 208.65625 94.945312 208.832031 95.097656 208.910156 C 97.160156 209.933594 98.210938 212.042969 99.929688 213.433594 C 100.34375 213.765625 100.726562 214.128906 100.753906 214.921875 C 99.722656 214.503906 98.640625 214.292969 97.820312 213.710938 Z M 110 211.871094 C 108.074219 210.230469 106.90625 208.058594 105.261719 206.28125 C 105.023438 206.023438 104.75 205.746094 104.664062 205.425781 C 104.382812 204.417969 103.621094 203.933594 102.820312 203.382812 C 101.941406 202.777344 101.257812 201.933594 101.09375 200.800781 C 100.972656 199.949219 100.632812 199.199219 100.066406 198.558594 C 99.203125 197.574219 98.546875 196.453125 97.824219 195.371094 C 97.695312 195.175781 97.597656 194.914062 97.414062 194.792969 C 96.117188 193.941406 95.582031 192.503906 94.722656 191.316406 C 94.164062 190.542969 93.628906 189.777344 92.832031 189.210938 C 92.453125 188.941406 92.011719 188.585938 91.882812 188.179688 C 90.988281 185.429688 88.875 183.546875 87.132812 181.414062 C 85.5625 179.5 83.6875 177.804688 82.292969 175.773438 C 81.222656 174.207031 79.738281 172.957031 78.933594 171.199219 C 78.742188 170.78125 78.429688 170.355469 78.0625 170.082031 C 76.675781 169.066406 76.015625 167.519531 75.011719 166.222656 C 73.65625 164.464844 72.144531 162.839844 70.847656 161.015625 C 70.367188 160.335938 69.636719 159.820312 69.257812 158.980469 C 68.886719 158.148438 68.058594 157.675781 67.371094 157.113281 C 67.050781 156.855469 66.65625 156.703125 66.480469 156.277344 C 65.414062 153.710938 63.511719 151.773438 61.65625 149.789062 C 60.605469 148.667969 59.703125 147.414062 58.914062 146.089844 C 58.382812 145.199219 57.816406 144.429688 56.867188 143.9375 C 55.386719 143.164062 54.632812 141.667969 53.648438 140.425781 C 53.183594 139.835938 52.796875 139.164062 52.320312 138.550781 C 51.632812 137.667969 50.746094 136.914062 50.378906 135.792969 C 50.289062 135.53125 50.066406 135.265625 49.835938 135.105469 C 48.09375 133.867188 46.859375 132.230469 45.894531 130.351562 C 45.757812 130.089844 45.578125 129.839844 45.371094 129.632812 C 43.441406 127.695312 42.132812 125.304688 40.546875 123.152344 C 41.035156 122.148438 41.601562 121.363281 42.585938 120.902344 C 43.238281 120.597656 43.851562 120.105469 44.039062 119.394531 C 44.34375 118.261719 45.214844 117.496094 45.695312 116.492188 C 45.992188 115.878906 46.457031 115.441406 47.160156 115.152344 C 47.882812 115.476562 48.34375 116.070312 48.558594 116.847656 C 48.757812 117.5625 49.136719 118.117188 49.777344 118.507812 C 50.1875 118.757812 50.570312 119.078125 50.738281 119.539062 C 51.144531 120.640625 52.03125 121.367188 52.738281 122.234375 C 53.039062 122.597656 53.53125 122.894531 53.65625 123.308594 C 54.210938 125.121094 55.679688 126.292969 56.671875 127.792969 C 57.8125 129.515625 59.101562 131.140625 60.558594 132.628906 C 61.191406 133.277344 62.144531 133.605469 62.546875 134.347656 C 62.972656 135.121094 63.296875 135.933594 63.820312 136.675781 C 64.84375 138.121094 65.960938 139.464844 67.21875 140.726562 C 68.148438 141.660156 68.726562 142.941406 69.441406 144.085938 C 69.691406 144.484375 69.824219 144.957031 70.199219 145.285156 C 71.34375 146.269531 72.117188 147.488281 72.703125 148.882812 C 72.988281 149.554688 73.652344 150.042969 74.117188 150.648438 C 75.914062 153.015625 77.390625 155.605469 79.300781 157.894531 C 79.976562 158.710938 80.671875 159.515625 81.117188 160.515625 C 81.378906 161.09375 81.78125 161.710938 82.285156 162.070312 C 83.644531 163.019531 84.429688 164.4375 85.363281 165.699219 C 86.167969 166.78125 86.613281 168.125 87.390625 169.257812 C 88.226562 170.476562 89.050781 171.710938 89.886719 172.933594 C 89.984375 173.082031 90.160156 173.195312 90.210938 173.355469 C 90.871094 175.273438 92.417969 176.554688 93.605469 178.09375 C 93.863281 178.429688 94.085938 178.753906 94.238281 179.152344 C 94.96875 181.054688 96.117188 182.707031 97.332031 184.328125 C 97.476562 184.515625 97.605469 184.785156 97.800781 184.855469 C 99.039062 185.304688 99.34375 186.417969 99.695312 187.480469 C 100 188.398438 100.574219 189.160156 101.046875 189.976562 C 101.613281 190.941406 102.257812 191.835938 102.605469 192.933594 C 102.945312 193.992188 103.898438 194.699219 104.394531 195.75 C 105.59375 198.308594 106.757812 200.914062 108.460938 203.207031 C 108.628906 203.433594 108.726562 203.75 108.75 204.03125 C 108.886719 205.53125 109.457031 206.917969 109.914062 208.324219 C 110.207031 209.242188 110.144531 210.203125 110.46875 211.109375 C 110.574219 211.378906 110.34375 211.679688 110 211.871094 Z M 206.265625 155.171875 C 205.535156 156.242188 204.773438 157.289062 204.019531 158.339844 C 202.933594 158.378906 202.402344 159.351562 201.75 159.933594 C 199.839844 161.648438 197.351562 162.496094 195.542969 164.324219 C 195.136719 164.730469 194.546875 164.960938 194.015625 165.222656 C 193.300781 165.578125 192.660156 166.042969 192.3125 166.746094 C 191.957031 167.460938 191.335938 167.6875 190.722656 168.0625 C 188.300781 169.554688 185.839844 170.996094 183.597656 172.769531 C 183.222656 173.066406 182.871094 173.464844 182.445312 173.59375 C 180.929688 174.039062 179.722656 174.933594 178.53125 175.925781 C 177.859375 176.484375 176.921875 176.773438 176.277344 177.296875 C 175.089844 178.257812 173.808594 178.949219 172.496094 179.679688 C 171.46875 180.253906 170.546875 180.929688 169.382812 181.3125 C 167.722656 181.851562 166.429688 183.140625 164.757812 183.789062 C 163.660156 184.214844 162.53125 184.921875 161.585938 185.683594 C 159.429688 187.425781 157.003906 188.769531 154.78125 190.410156 C 153.835938 191.109375 152.769531 191.832031 151.464844 192.015625 C 150.390625 192.167969 149.554688 192.9375 148.703125 193.589844 C 148.476562 193.761719 148.324219 194.160156 148.097656 194.195312 C 146.6875 194.402344 145.867188 195.449219 144.890625 196.300781 C 143.769531 197.28125 142.511719 198.070312 141.183594 198.75 C 140.285156 199.207031 139.332031 199.640625 138.683594 200.417969 C 138.054688 201.164062 137.078125 200.769531 136.40625 201.300781 C 135.828125 201.757812 135.449219 202.398438 134.53125 202.539062 C 133.261719 202.738281 132.042969 203.304688 131.230469 204.445312 C 130.90625 204.898438 130.398438 205.085938 129.90625 205.320312 C 127.929688 206.265625 125.894531 207.089844 124.183594 208.535156 C 123.699219 208.941406 123.054688 209.207031 122.445312 209.414062 C 121.582031 209.707031 120.773438 210.121094 120.132812 210.71875 C 118.851562 211.910156 117.113281 212.011719 115.667969 212.78125 C 115.546875 212.847656 115.332031 212.734375 115.199219 212.710938 C 114.78125 212.324219 115.03125 211.894531 115.042969 211.496094 C 115.101562 209.414062 114.957031 207.347656 114.382812 205.339844 C 114.058594 204.191406 113.542969 203.109375 112.714844 202.21875 C 112.457031 201.941406 112.28125 201.667969 112.253906 201.292969 C 112.164062 200.078125 111.636719 199.003906 111.058594 197.976562 C 110.019531 196.121094 109.207031 194.128906 107.851562 192.457031 C 107.648438 192.207031 107.640625 191.917969 107.585938 191.628906 C 107.433594 190.789062 107.121094 190.035156 106.4375 189.46875 C 106.164062 189.242188 105.953125 188.960938 105.820312 188.605469 C 105.167969 186.84375 103.910156 185.507812 102.617188 184.214844 C 102.324219 183.925781 101.910156 183.765625 101.917969 183.269531 C 101.945312 181.429688 100.664062 180.234375 99.675781 178.945312 C 98.238281 177.066406 96.660156 175.296875 95.835938 173.023438 C 95.753906 172.804688 95.632812 172.578125 95.476562 172.40625 C 93.542969 170.289062 92.539062 167.523438 90.644531 165.390625 C 88.976562 163.511719 87.769531 161.347656 86.476562 159.234375 C 85.953125 158.367188 85.414062 157.511719 84.710938 156.777344 C 83.378906 155.394531 82.667969 153.59375 81.492188 152.09375 C 79.546875 149.617188 77.722656 147.046875 75.820312 144.542969 C 75.152344 143.667969 74.46875 142.859375 73.972656 141.824219 C 73.480469 140.796875 72.402344 140.078125 71.644531 139.160156 C 71.152344 138.558594 70.679688 137.964844 70.34375 137.28125 C 69.484375 135.546875 68.160156 134.175781 66.894531 132.761719 C 66.667969 132.503906 66.332031 132.328125 66.023438 132.15625 C 65.710938 131.980469 65.332031 131.828125 65.214844 131.488281 C 64.09375 128.273438 61.589844 126.035156 59.597656 123.4375 C 58.910156 122.542969 58.246094 121.621094 57.21875 121.050781 C 56.285156 120.535156 56 119.472656 55.359375 118.699219 C 54.53125 117.699219 53.617188 116.738281 53.195312 115.453125 C 53.066406 115.046875 52.832031 114.65625 52.460938 114.46875 C 50.988281 113.726562 50.441406 112.371094 49.996094 110.804688 C 52.425781 108.972656 54.992188 107.515625 57.25 105.597656 C 58.019531 104.9375 58.992188 104.371094 59.957031 103.960938 C 61.011719 103.511719 61.921875 102.929688 62.699219 102.089844 C 63.816406 100.878906 65.328125 100.289062 66.800781 99.660156 C 67.453125 99.378906 68.179688 99.25 68.59375 98.585938 C 68.652344 98.492188 68.722656 98.339844 68.800781 98.335938 C 70.578125 98.191406 71.753906 96.835938 73.09375 95.960938 C 74.378906 95.121094 75.710938 94.53125 77.089844 93.957031 C 78.367188 93.425781 79.269531 92.335938 80.488281 91.703125 C 81.050781 91.40625 81.644531 91.121094 82.179688 90.78125 C 83.378906 90.023438 84.667969 89.414062 85.777344 88.492188 C 86.683594 87.742188 87.609375 86.976562 88.839844 86.753906 C 89.109375 86.703125 89.390625 86.503906 89.582031 86.296875 C 90.179688 85.652344 90.914062 85.398438 91.765625 85.21875 C 92.9375 84.972656 93.988281 84.371094 94.867188 83.539062 C 95.316406 83.117188 95.773438 82.800781 96.386719 82.675781 C 96.789062 82.589844 97.199219 82.414062 97.527344 82.171875 C 99.4375 80.753906 101.617188 79.8125 103.644531 78.597656 C 103.949219 78.414062 104.277344 78.210938 104.480469 77.929688 C 105.367188 76.675781 106.703125 76.285156 108.085938 75.929688 C 109.589844 75.546875 111.019531 74.988281 112.261719 74.007812 C 113.292969 73.191406 114.597656 72.859375 115.734375 72.214844 C 117.171875 71.398438 118.5 70.339844 120.128906 69.878906 C 120.609375 69.742188 120.894531 69.316406 121.21875 68.972656 C 121.636719 68.53125 122.148438 68.324219 122.699219 68.070312 C 124.621094 67.1875 126.585938 66.355469 128.273438 65.042969 C 128.558594 64.816406 128.816406 64.628906 129.171875 64.527344 C 132.332031 63.636719 135.257812 62.242188 138.121094 60.648438 C 139.332031 59.972656 140.703125 59.539062 141.910156 58.804688 C 143.351562 57.921875 144.976562 57.410156 146.316406 56.296875 C 146.941406 55.773438 147.878906 55.460938 148.820312 55.703125 C 149.621094 55.90625 150.339844 55.722656 151.023438 55.265625 C 151.839844 54.71875 152.9375 54.707031 153.527344 53.851562 C 153.675781 53.933594 153.730469 53.957031 153.78125 53.988281 C 154.71875 54.535156 154.414062 55.769531 155.113281 56.429688 C 155.757812 57.039062 156.386719 57.582031 156.71875 58.484375 C 157.117188 59.585938 157.816406 60.570312 158.308594 61.640625 C 159 63.140625 159.792969 64.546875 160.992188 65.71875 C 161.269531 65.992188 161.386719 66.445312 161.535156 66.835938 C 161.714844 67.285156 161.914062 67.730469 162.320312 68.003906 C 163.238281 68.628906 163.921875 69.398438 164.121094 70.539062 C 164.167969 70.8125 164.359375 71.117188 164.578125 71.289062 C 165.386719 71.925781 165.699219 72.800781 165.890625 73.75 C 165.960938 74.117188 166.097656 74.507812 166.382812 74.671875 C 167.558594 75.359375 167.867188 76.664062 168.402344 77.722656 C 169.058594 79.023438 169.914062 80.117188 170.851562 81.179688 C 171.148438 81.519531 171.347656 81.84375 171.332031 82.273438 C 171.308594 83.109375 171.742188 83.742188 172.199219 84.378906 C 172.886719 85.335938 173.554688 86.304688 174.230469 87.269531 C 174.300781 87.367188 174.414062 87.445312 174.445312 87.554688 C 174.9375 89.203125 175.730469 90.671875 176.800781 92.03125 C 177.921875 93.453125 178.175781 95.429688 179.671875 96.636719 C 179.71875 96.671875 179.792969 96.714844 179.792969 96.757812 C 179.875 98.351562 180.816406 99.46875 181.855469 100.542969 C 182.125 100.820312 181.992188 101.238281 182.109375 101.5625 C 182.363281 102.289062 182.585938 103.027344 183.246094 103.539062 C 183.980469 104.101562 184.429688 104.875 184.585938 105.789062 C 184.671875 106.285156 184.9375 106.652344 185.226562 107.039062 C 186.425781 108.65625 187.582031 110.382812 188.207031 112.242188 C 189.34375 115.601562 191.378906 118.4375 192.996094 121.511719 C 193.300781 122.082031 193.539062 122.6875 193.859375 123.253906 C 193.949219 123.402344 194.011719 123.589844 194.027344 123.761719 C 194.117188 124.933594 195.566406 125.339844 195.628906 126.433594 C 195.695312 127.609375 196.394531 128.394531 196.921875 129.316406 C 197.6875 130.65625 198.355469 132.042969 199.234375 133.320312 C 199.421875 133.597656 199.5 133.984375 199.519531 134.332031 C 199.558594 134.894531 199.773438 135.359375 200.136719 135.78125 C 201.226562 137.054688 202.113281 138.410156 202.324219 140.144531 C 202.394531 140.714844 202.644531 141.332031 203 141.78125 C 203.730469 142.699219 204.1875 143.679688 204.296875 144.847656 C 204.332031 145.191406 204.453125 145.554688 204.621094 145.863281 C 206.105469 148.621094 206.09375 151.636719 206.1875 154.644531 C 206.207031 154.832031 206.339844 155.066406 206.265625 155.171875 Z M 163.609375 147.726562 C 163.738281 147.59375 164.070312 147.683594 164.292969 147.617188 C 165.980469 147.105469 167.625 146.648438 168.945312 145.242188 C 170.058594 144.058594 171.417969 143.027344 172.980469 142.375 C 173.355469 142.21875 173.757812 142.125 174.046875 141.773438 C 174.949219 140.664062 176.222656 140.1875 177.523438 139.714844 C 178.921875 139.207031 180.226562 138.53125 181.039062 137.164062 C 181.484375 136.414062 182.261719 136.015625 183.082031 135.816406 C 184.007812 135.589844 184.699219 135.144531 185.113281 134.265625 C 185.207031 134.058594 185.34375 133.8125 185.53125 133.707031 C 186.824219 132.988281 186.960938 131.769531 186.980469 130.410156 C 187.0625 129.757812 186.984375 129.082031 186.605469 128.421875 C 185.695312 126.835938 184.988281 125.105469 183.914062 123.644531 C 182.832031 122.179688 182.707031 120.121094 180.980469 119.070312 C 180.730469 118.921875 180.660156 118.449219 180.539062 118.113281 C 180.0625 116.785156 179.464844 115.53125 178.832031 114.265625 C 177.949219 112.496094 176.855469 110.902344 175.777344 109.277344 C 175.539062 108.921875 175.292969 108.59375 175.324219 108.152344 C 175.449219 106.65625 174.242188 105.695312 173.832031 104.414062 C 173.773438 104.230469 173.484375 104.113281 173.296875 103.976562 C 172.054688 103.050781 169.914062 103.085938 168.511719 104.089844 C 167.742188 104.640625 167.03125 105.273438 166.078125 105.5 C 164.550781 105.867188 163.28125 106.703125 162.015625 107.605469 C 160.824219 108.449219 159.738281 109.5 158.304688 109.972656 C 157.453125 110.25 156.671875 110.65625 155.882812 111.070312 C 154.792969 111.640625 153.375 111.84375 152.578125 112.667969 C 151.640625 113.632812 150.683594 114.097656 149.453125 114.367188 C 149.0625 114.453125 148.757812 114.984375 148.433594 115.332031 C 148.152344 115.636719 147.882812 116.09375 147.472656 116.082031 C 146.390625 116.042969 145.585938 116.734375 144.632812 117.027344 C 143.15625 117.480469 141.703125 117.960938 140.75 119.324219 C 140.554688 119.601562 140.214844 119.902344 139.90625 119.945312 C 138.550781 120.121094 137.703125 121.074219 136.796875 121.894531 C 136.140625 122.484375 135.550781 122.796875 134.601562 122.761719 C 132.574219 122.683594 131.410156 124.394531 132.128906 126.257812 C 132.597656 127.457031 133.078125 128.679688 133.730469 129.777344 C 134.695312 131.398438 135.699219 132.984375 136.617188 134.636719 C 137.464844 136.160156 139.007812 137.28125 139.289062 139.164062 C 139.296875 139.21875 139.355469 139.261719 139.394531 139.304688 C 140.171875 140.21875 140.523438 141.421875 141.214844 142.324219 C 142.457031 143.949219 143.453125 145.613281 143.9375 147.609375 C 144.050781 148.085938 144.664062 148.441406 144.800781 148.921875 C 145.195312 150.285156 146.203125 151.378906 146.40625 152.832031 C 146.464844 153.269531 146.789062 153.691406 147.0625 154.074219 C 148.019531 155.429688 149.347656 155.777344 150.804688 155.027344 C 151.644531 154.597656 152.519531 154.1875 152.976562 153.253906 C 153.261719 152.675781 153.855469 152.378906 154.410156 152.28125 C 156.394531 151.917969 158.070312 150.929688 159.710938 149.855469 C 160.964844 149.039062 162.527344 148.839844 163.609375 147.726562 Z M 152.960938 148.386719 C 152.175781 148.917969 151.070312 148.78125 150.414062 149.878906 C 149.304688 148.6875 149.050781 147.441406 148.660156 146.308594 C 148.324219 145.320312 147.941406 144.402344 147.171875 143.722656 C 146.535156 143.164062 146.238281 142.527344 146.257812 141.699219 C 146.277344 140.890625 145.988281 140.210938 145.464844 139.578125 C 144.859375 138.847656 144.324219 138.054688 144.058594 137.121094 C 143.816406 136.261719 143.101562 135.78125 142.535156 135.175781 C 142.054688 134.660156 141.621094 134.195312 141.503906 133.386719 C 141.347656 132.253906 140.542969 131.367188 139.734375 130.578125 C 139.378906 130.234375 139.246094 129.945312 139.21875 129.414062 C 139.179688 128.59375 138.652344 127.867188 138.234375 127.167969 C 138.777344 126.507812 139.195312 125.894531 140.03125 125.53125 C 140.855469 125.171875 141.722656 124.652344 142.265625 123.816406 C 142.390625 123.625 142.589844 123.4375 142.792969 123.367188 C 145.140625 122.539062 147.078125 121.019531 149.117188 119.667969 C 149.402344 119.480469 149.765625 119.324219 150.105469 119.304688 C 151.320312 119.230469 152.261719 118.648438 153.015625 117.761719 C 153.402344 117.304688 153.859375 117.164062 154.40625 117.089844 C 154.878906 117.027344 155.367188 116.941406 155.738281 116.617188 C 156.4375 115.996094 157.308594 115.8125 158.164062 115.558594 C 159.480469 115.160156 160.636719 114.460938 161.839844 113.808594 C 163.738281 112.777344 165.109375 111.0625 167.070312 110.132812 C 168.09375 109.648438 169.105469 109.21875 170.171875 108.964844 C 171.460938 109.917969 172.097656 111.121094 172.582031 112.664062 C 173.472656 115.484375 174.886719 118.140625 177.15625 120.160156 C 177.613281 120.566406 177.808594 120.929688 177.863281 121.480469 C 177.964844 122.4375 178.230469 123.320312 178.960938 124.019531 C 179.207031 124.253906 179.421875 124.613281 179.480469 124.941406 C 179.792969 126.75 181.023438 128.125 181.699219 129.789062 C 181.527344 131.003906 180.648438 131.617188 179.6875 132.289062 C 178.0625 133.417969 176.164062 134.117188 174.804688 135.699219 C 174.109375 136.503906 172.925781 136.914062 171.921875 137.410156 C 171.167969 137.785156 170.480469 138.210938 169.886719 138.808594 C 168.582031 140.117188 167.15625 141.230469 165.3125 141.722656 C 164.875 141.835938 164.523438 142.269531 164.089844 142.433594 C 162.890625 142.882812 161.890625 143.808594 160.5 143.84375 C 160.011719 143.855469 159.4375 144.15625 159.066406 144.503906 C 157.269531 146.175781 154.960938 147.03125 152.960938 148.386719 Z M 118.566406 88.605469 C 117.566406 87.640625 117.445312 86.636719 118.035156 85.710938 C 118.652344 84.738281 119.609375 84.566406 121.023438 84.957031 C 122.980469 85.5 124.097656 87.132812 125.59375 88.269531 C 125.726562 88.375 125.789062 88.570312 125.917969 88.691406 C 126.726562 89.484375 127.207031 90.578125 128.039062 91.308594 C 128.824219 92 129.796875 92.496094 130.855469 93.484375 C 130.957031 91.316406 131.183594 89.585938 130.070312 87.953125 C 129.507812 87.132812 129.292969 86.078125 129.1875 85.070312 C 129.109375 84.292969 128.988281 83.539062 128.710938 82.808594 C 128.414062 82.023438 128.59375 81.261719 128.910156 80.570312 C 129.527344 79.207031 131.316406 78.785156 132.535156 79.71875 C 133.421875 80.398438 134.277344 81.140625 134.78125 82.1875 C 134.878906 82.394531 134.960938 82.703125 135.128906 82.777344 C 136.285156 83.292969 136.8125 84.421875 137.648438 85.246094 C 138.246094 85.828125 138.582031 86.6875 139.375 87.027344 C 140.210938 87.390625 140.316406 88.367188 141.027344 88.816406 C 141.363281 88.363281 141.039062 87.976562 140.886719 87.644531 C 140.558594 86.941406 140.175781 86.28125 140.082031 85.484375 C 140.050781 85.207031 139.921875 84.875 139.722656 84.691406 C 137.949219 83.027344 137.570312 80.820312 137.382812 78.582031 C 137.292969 77.511719 137.265625 76.46875 136.796875 75.464844 C 136.519531 74.871094 136.464844 74.191406 136.808594 73.566406 C 137.417969 72.453125 138.960938 72.152344 139.871094 73.097656 C 140.90625 74.175781 142.242188 75.1875 141.675781 77.042969 C 141.613281 77.238281 141.683594 77.570312 141.816406 77.714844 C 142.71875 78.675781 142.558594 80.09375 143.3125 81.109375 C 143.382812 81.203125 143.441406 81.328125 143.445312 81.441406 C 143.511719 83.453125 144.96875 84.785156 145.820312 86.417969 C 146.691406 88.101562 147.441406 89.847656 148.285156 91.546875 C 148.582031 92.148438 148.804688 92.871094 148.746094 93.613281 C 148.660156 94.695312 148.96875 95.722656 149.226562 96.753906 C 149.613281 98.304688 149.242188 99.332031 148.085938 99.976562 C 147.050781 100.554688 145.453125 100.40625 144.605469 99.464844 C 143.882812 98.667969 143.136719 97.917969 142.316406 97.222656 C 142.058594 97.003906 141.777344 96.640625 141.761719 96.339844 C 141.71875 95.296875 141.019531 94.9375 140.214844 94.613281 C 139.1875 94.207031 138.382812 93.5 137.777344 92.589844 C 137.410156 92.046875 137.046875 91.546875 136.128906 91.1875 C 136.945312 93.300781 137.089844 95.382812 138.136719 97.179688 C 138.714844 98.171875 139.054688 99.242188 139.28125 100.34375 C 139.441406 101.101562 139.417969 101.890625 139.132812 102.636719 C 138.648438 103.902344 137.363281 104.679688 136.125 104.195312 C 134.886719 103.710938 133.515625 103.285156 132.835938 101.945312 C 132.609375 101.5 132.242188 101.269531 131.855469 100.980469 C 130.101562 99.667969 128.40625 98.273438 126.695312 96.898438 C 126.417969 96.675781 126.089844 96.445312 125.945312 96.140625 C 125.054688 94.304688 123.246094 93.359375 121.945312 91.929688 C 120.875 90.753906 119.703125 89.703125 118.566406 88.605469 Z M 98.914062 127.03125 C 98.347656 126.636719 97.585938 126.519531 97.015625 126.074219 C 96.660156 125.800781 96.257812 125.746094 95.832031 125.773438 C 94.4375 125.871094 93.179688 125.558594 91.882812 124.96875 C 90.882812 124.519531 89.808594 123.796875 88.550781 124.167969 C 86.980469 123.507812 85.230469 123.359375 83.851562 122.148438 C 82.398438 120.867188 80.003906 120.476562 78.304688 120.988281 C 78.242188 121.566406 78.699219 121.886719 79.0625 122.101562 C 80.03125 122.679688 80.578125 123.574219 81.070312 124.503906 C 81.664062 125.625 82.742188 126.328125 83.378906 127.410156 C 83.984375 128.429688 84.746094 129.359375 85.058594 130.527344 C 85.140625 130.828125 85.222656 131.101562 85.535156 131.222656 C 86.953125 131.757812 87.394531 133.175781 88.191406 134.242188 C 88.894531 135.183594 88.515625 136.558594 87.601562 137.28125 C 86.691406 138 85.230469 138.105469 84.5 137.257812 C 83.5625 136.164062 82.152344 135.34375 82.027344 133.679688 C 82.015625 133.472656 81.949219 133.355469 81.796875 133.261719 C 79.902344 132.015625 78.84375 130.058594 77.605469 128.261719 C 76.667969 126.902344 75.449219 125.714844 74.957031 124.066406 C 74.882812 123.820312 74.542969 123.65625 74.339844 123.445312 C 74.007812 123.101562 73.558594 122.800781 73.390625 122.386719 C 72.714844 120.714844 71.417969 119.453125 70.554688 117.914062 C 69.496094 116.027344 70.675781 114.058594 72.765625 114 C 73.730469 113.972656 74.671875 114.1875 75.542969 114.585938 C 77.40625 115.433594 79.34375 115.882812 81.394531 115.804688 C 82.394531 115.765625 83.273438 116.042969 84.023438 116.714844 C 84.242188 116.914062 84.417969 117.140625 84.730469 117.234375 C 86.082031 117.65625 87.386719 118.144531 88.648438 118.84375 C 89.453125 119.289062 90.421875 119.8125 91.53125 119.605469 C 91.960938 119.523438 92.40625 119.851562 92.828125 120.078125 C 93.375 120.367188 93.925781 120.734375 94.804688 120.714844 C 93.996094 119.019531 93.273438 117.5 92.15625 116.191406 C 91.816406 115.789062 91.476562 115.371094 91.140625 114.972656 C 89.691406 113.28125 88.851562 111.273438 87.972656 109.28125 C 87.394531 107.96875 86.328125 106.988281 85.609375 105.765625 C 85.257812 105.167969 85.054688 104.617188 85.113281 103.929688 C 85.21875 102.648438 85.683594 101.925781 86.699219 101.605469 C 87.871094 101.238281 89.105469 101.542969 89.671875 102.621094 C 90.210938 103.65625 90.890625 104.605469 91.296875 105.757812 C 91.867188 107.351562 92.90625 108.773438 93.960938 110.128906 C 94.4375 110.742188 94.929688 111.320312 95.257812 112.035156 C 96.101562 113.890625 97.515625 115.371094 98.664062 117.015625 C 99.714844 118.519531 100.285156 120.308594 101.523438 121.691406 C 101.796875 121.992188 101.960938 122.363281 102.257812 122.675781 C 103.738281 124.230469 103.097656 126.5 101.058594 127.183594 C 100.300781 127.4375 99.664062 127.554688 98.914062 127.03125 Z M 100.757812 103.050781 C 99.421875 101.390625 98.5625 99.484375 98.761719 97.347656 C 98.871094 96.144531 99.078125 94.894531 99.664062 93.75 C 100.097656 92.898438 100.601562 92.273438 101.574219 92.0625 C 102.214844 91.925781 102.851562 91.675781 103.3125 91.207031 C 105.121094 89.378906 107.589844 89.277344 109.855469 88.691406 C 110.851562 88.433594 111.742188 89.050781 112.257812 89.90625 C 112.804688 90.804688 112.917969 91.792969 112.242188 92.757812 C 111.585938 93.691406 110.683594 94.027344 109.609375 93.875 C 109.152344 93.808594 108.71875 93.566406 108.203125 93.375 C 107.445312 93.871094 106.691406 94.386719 105.78125 94.714844 C 104.574219 95.148438 104.144531 96.371094 103.953125 97.578125 C 103.863281 98.148438 103.9375 98.742188 103.9375 99.324219 C 104.027344 99.410156 104.113281 99.488281 104.203125 99.566406 C 105.507812 100.625 106.839844 100.839844 108.449219 100.09375 C 109.660156 99.53125 110.75 100.128906 111.460938 101.320312 C 112.015625 102.253906 111.890625 103.347656 110.980469 104.253906 C 110.230469 105 109.433594 105.6875 108.761719 106.523438 C 108.328125 107.0625 108.03125 107.578125 108.027344 108.269531 C 107.992188 111.6875 107.5 111.523438 111.148438 113.382812 C 111.726562 113.679688 112.285156 114.015625 112.9375 114.378906 C 113.894531 113.605469 115.0625 113.570312 116.277344 113.632812 C 117.695312 113.710938 118.617188 112.972656 118.992188 111.601562 C 119.378906 110.179688 119.75 108.746094 120.171875 107.332031 C 120.320312 106.824219 120.535156 106.316406 120.824219 105.875 C 121.582031 104.714844 122.9375 104.320312 124.109375 104.847656 C 125.371094 105.414062 125.957031 106.746094 125.542969 108.128906 C 125.492188 108.296875 125.46875 108.511719 125.355469 108.621094 C 123.734375 110.121094 123.5625 112.3125 122.710938 114.175781 C 122.015625 115.683594 120.90625 116.648438 119.378906 117.160156 C 118.488281 117.457031 117.566406 117.667969 116.824219 118.292969 C 115.828125 119.132812 114.710938 118.984375 113.613281 118.589844 C 112.765625 118.285156 111.972656 117.933594 111.0625 118.4375 C 110.710938 118.632812 110.257812 118.535156 109.851562 118.371094 C 106.972656 117.230469 104.636719 115.414062 103.585938 112.464844 C 102.765625 110.152344 102.664062 107.6875 103.78125 105.105469 C 102.378906 104.777344 101.507812 103.988281 100.757812 103.050781 Z M 144.988281 74.558594 C 145.082031 73.234375 145.171875 71.910156 145.578125 70.578125 C 146.070312 68.976562 146.886719 67.734375 148.019531 66.574219 C 149.671875 64.871094 151.589844 64.332031 153.84375 65 C 154.882812 65.308594 155.460938 65.980469 155.515625 66.84375 C 155.578125 67.878906 155.140625 68.667969 154.121094 69.113281 C 153.644531 69.320312 153.15625 69.550781 152.597656 69.570312 C 152.078125 69.589844 151.5625 69.75 151.097656 69.84375 C 149.066406 72.953125 150.023438 75.402344 152.296875 76.753906 C 152.410156 76.746094 152.558594 76.785156 152.640625 76.730469 C 155.078125 75.066406 157.757812 75.523438 160.382812 75.957031 C 161.527344 76.144531 162.605469 76.640625 163.6875 77.191406 C 165.585938 78.160156 166.085938 79.785156 166.21875 81.574219 C 166.332031 83.042969 166.445312 84.535156 166.273438 86.027344 C 166.132812 87.242188 165.703125 88.355469 165.09375 89.359375 C 164.207031 90.816406 162.953125 91.632812 161.078125 91.4375 C 159.613281 91.28125 158.089844 91.320312 156.628906 91.53125 C 155.578125 91.6875 154.648438 91.398438 153.679688 91.242188 C 152.605469 91.074219 152.046875 90.359375 152.03125 89.457031 C 152.015625 88.417969 152.375 87.890625 153.480469 87.519531 C 155.515625 86.835938 157.585938 86.3125 159.761719 86.6875 C 160.234375 86.769531 160.566406 86.609375 160.890625 86.335938 C 161.308594 85.980469 161.550781 85.546875 161.683594 84.988281 C 162.3125 82.257812 162.296875 82.296875 159.660156 81.261719 C 158.28125 80.71875 156.980469 80.453125 155.519531 80.929688 C 154.601562 81.226562 153.640625 80.894531 152.773438 80.535156 C 152 80.214844 151.261719 79.941406 150.398438 79.886719 C 149.082031 79.804688 148.230469 78.757812 147.34375 77.953125 C 146.839844 77.496094 146.40625 76.898438 145.863281 76.449219 C 145.261719 75.949219 144.945312 75.21875 144.988281 74.558594 Z M 166.019531 166.46875 C 165.628906 166.941406 165.09375 167.203125 164.621094 167.550781 C 163.816406 168.144531 162.949219 168.59375 162.316406 169.460938 C 161.660156 170.359375 160.550781 170.382812 159.535156 170.089844 C 158.6875 169.84375 158.367188 169.097656 158.320312 168.289062 C 158.269531 167.324219 158.734375 166.546875 159.53125 166.046875 C 160.554688 165.40625 161.460938 164.660156 162.085938 163.613281 C 162.316406 163.226562 162.738281 163.128906 163.0625 162.882812 C 164.238281 162 165.4375 161.125 166.375 159.972656 C 166.679688 159.589844 167.027344 159.265625 167.5 159.132812 C 167.929688 159.015625 168.207031 158.703125 168.503906 158.414062 C 170.128906 156.835938 171.949219 155.5625 174.113281 154.832031 C 174.28125 154.777344 174.449219 154.695312 174.578125 154.585938 C 176.046875 153.289062 177.765625 152.425781 179.53125 151.636719 C 180.183594 151.347656 180.730469 150.917969 181.261719 150.425781 C 183.4375 148.410156 185.742188 146.574219 188.390625 145.191406 C 189.164062 144.785156 189.808594 144.132812 190.558594 143.667969 C 192.117188 142.710938 194.101562 143.8125 194.160156 145.785156 C 194.1875 146.414062 193.769531 146.976562 193.328125 147.554688 C 192.351562 148.816406 191.011719 149.644531 189.644531 150.300781 C 188.132812 151.035156 186.933594 152.179688 185.519531 153.027344 C 184.652344 153.546875 183.730469 153.945312 182.867188 154.453125 C 181.242188 155.414062 179.710938 156.5625 177.996094 157.300781 C 176.128906 158.105469 174.980469 159.6875 173.445312 160.839844 C 173.109375 161.089844 172.785156 161.332031 172.40625 161.511719 C 171.644531 161.863281 170.953125 162.300781 170.421875 162.984375 C 170.175781 163.300781 169.820312 163.574219 169.457031 163.75 C 168.113281 164.410156 166.96875 165.324219 166.019531 166.46875 Z M 198.804688 154.441406 C 198.683594 155.546875 198.324219 156.683594 196.925781 157.003906 C 195.847656 157.253906 195.269531 158.132812 194.511719 158.765625 C 193.542969 159.578125 192.496094 160.304688 191.351562 160.710938 C 190.15625 161.132812 189.183594 161.945312 187.976562 162.304688 C 187.605469 162.410156 187.210938 162.710938 186.992188 163.035156 C 186.148438 164.277344 184.789062 165.019531 183.949219 166.261719 C 183.757812 166.539062 183.40625 166.730469 183.085938 166.878906 C 182.425781 167.183594 181.890625 167.582031 181.515625 168.242188 C 181.222656 168.761719 180.714844 169.152344 180.160156 169.359375 C 179.355469 169.660156 178.746094 170.1875 178.101562 170.726562 C 175.796875 172.652344 173.308594 174.308594 170.546875 175.523438 C 170.230469 175.664062 169.992188 175.960938 169.699219 176.160156 C 168.558594 176.941406 167.007812 176.671875 166.21875 175.566406 C 165.484375 174.535156 165.714844 172.65625 166.921875 172.117188 C 168.332031 171.488281 169.308594 170.167969 170.871094 169.847656 C 171.089844 169.804688 171.3125 169.671875 171.492188 169.53125 C 172.980469 168.359375 174.472656 167.195312 176.148438 166.285156 C 176.445312 166.125 176.652344 165.796875 176.894531 165.542969 C 177.183594 165.246094 177.414062 164.816406 177.769531 164.667969 C 180.40625 163.550781 182.199219 161.144531 184.855469 160.058594 C 185.15625 159.9375 185.410156 159.605469 185.601562 159.3125 C 186.703125 157.628906 188.355469 156.613281 190.019531 155.59375 C 190.605469 155.234375 191.257812 155.207031 191.863281 154.980469 C 192.695312 154.667969 193.425781 154.5 193.644531 153.34375 C 193.875 152.117188 195.394531 151.429688 196.628906 151.65625 C 197.96875 151.902344 198.84375 152.964844 198.804688 154.441406 Z M 148.804688 180.242188 C 148.78125 181.140625 148.460938 181.914062 147.59375 182.25 C 146.433594 182.695312 145.621094 183.429688 144.980469 184.507812 C 144.417969 185.460938 143.285156 185.828125 142.328125 186.25 C 140.890625 186.886719 139.695312 187.914062 138.5625 188.867188 C 136.421875 190.671875 134.070312 192.148438 131.867188 193.839844 C 130.3125 195.027344 128.449219 195.796875 127.128906 197.296875 C 126.886719 197.574219 126.527344 197.667969 126.175781 197.746094 C 125.175781 197.960938 124.277344 198.433594 123.398438 198.929688 C 122.316406 199.535156 120.859375 199.238281 120.300781 198.285156 C 119.683594 197.222656 120.039062 195.894531 121.164062 195.214844 C 123.433594 193.832031 125.449219 192.097656 127.605469 190.5625 C 129.339844 189.324219 131.058594 188.066406 132.855469 186.90625 C 134.226562 186.015625 135.625 185.113281 136.925781 184.074219 C 138.359375 182.929688 139.855469 181.851562 141.308594 180.722656 C 141.539062 180.542969 141.820312 180.398438 142.101562 180.320312 C 143.152344 180.015625 144.007812 179.546875 144.675781 178.582031 C 145.292969 177.691406 146.570312 177.589844 147.597656 178.066406 C 148.4375 178.460938 148.832031 179.160156 148.804688 180.242188 Z M 115.992188 165.992188 C 115.160156 166.65625 114.3125 167.300781 113.449219 167.929688 C 112.367188 168.71875 111.164062 169.347656 109.992188 170.007812 C 109.753906 170.140625 109.421875 170.105469 109.253906 170.132812 C 108.027344 170.105469 107.117188 169.417969 106.757812 168.332031 C 106.496094 167.535156 106.820312 166.300781 107.625 165.804688 C 110.550781 163.996094 112.851562 161.242188 115.992188 159.855469 C 117.953125 158.996094 119.304688 157.457031 121.074219 156.445312 C 123.160156 155.25 125.082031 153.761719 127.410156 153 C 127.90625 152.839844 128.402344 152.5625 128.789062 152.210938 C 129.863281 151.246094 131.160156 151.183594 132.472656 151.195312 C 133.382812 151.203125 134.246094 151.828125 134.351562 152.570312 C 134.46875 153.363281 134.304688 154.144531 133.566406 154.617188 C 132.632812 155.210938 131.882812 156.042969 130.703125 156.332031 C 129.90625 156.523438 129.144531 157.132812 128.53125 157.730469 C 127.871094 158.367188 127.15625 158.835938 126.328125 159.1875 C 125.457031 159.554688 124.644531 160.011719 123.929688 160.679688 C 123.1875 161.375 122.167969 161.601562 121.214844 161.886719 C 120.804688 162.007812 120.398438 162.085938 120.152344 162.460938 C 119.109375 164.046875 117.410156 164.863281 115.992188 165.992188 Z M 102.683594 152.089844 C 101.742188 152.859375 100.433594 153.070312 99.488281 153.339844 C 98.429688 153.339844 97.847656 152.949219 97.5 152.269531 C 97.125 151.542969 97.011719 150.699219 97.574219 150.082031 C 98.398438 149.179688 99.097656 148.089844 100.351562 147.664062 C 100.570312 147.589844 100.859375 147.546875 100.984375 147.386719 C 101.972656 146.121094 103.511719 145.484375 104.488281 144.15625 C 105.246094 143.125 106.523438 142.582031 107.703125 142.054688 C 108.136719 141.859375 108.5625 141.636719 108.992188 141.492188 C 109.820312 141.214844 110.402344 140.753906 110.859375 140.015625 C 111.160156 139.515625 111.640625 139.15625 112.257812 138.984375 C 112.824219 138.828125 113.378906 138.578125 113.878906 138.265625 C 114.988281 137.574219 116.46875 137.394531 117.078125 135.984375 C 117.132812 135.863281 117.390625 135.835938 117.539062 135.738281 C 119.085938 134.714844 120.957031 134.515625 122.628906 133.789062 C 123.699219 133.324219 125.148438 134.503906 125.417969 135.683594 C 125.65625 136.734375 124.882812 138.246094 123.785156 138.519531 C 122.621094 138.808594 121.515625 139.089844 120.617188 139.972656 C 120.3125 140.273438 119.734375 140.464844 119.304688 140.421875 C 118.289062 140.316406 117.652344 140.890625 116.964844 141.453125 C 116.097656 142.164062 115.058594 142.644531 114.3125 143.523438 C 114.039062 143.847656 113.636719 144.082031 113.210938 144.046875 C 112.339844 143.972656 111.847656 144.472656 111.289062 145.039062 C 109.957031 146.390625 108.511719 147.617188 106.871094 148.589844 C 106.234375 148.96875 105.898438 149.652344 105.324219 150.042969 C 104.398438 150.679688 103.546875 151.382812 102.683594 152.089844 Z M 108.113281 160.277344 C 107.449219 161 106.503906 161.390625 105.847656 162.210938 C 105.238281 162.964844 103.699219 162.703125 102.929688 161.945312 C 102.152344 161.183594 101.910156 159.765625 102.660156 159.023438 C 103.710938 157.996094 104.328125 156.507812 105.78125 155.917969 C 106.191406 155.75 106.230469 155.40625 106.453125 155.152344 C 106.957031 154.5625 107.511719 154.066406 108.199219 153.660156 C 109.359375 152.980469 110.515625 152.253906 111.523438 151.375 C 112.96875 150.117188 114.472656 148.984375 116.207031 148.171875 C 116.546875 148.007812 116.765625 147.746094 116.992188 147.46875 C 117.214844 147.195312 117.429688 146.84375 117.730469 146.714844 C 118.765625 146.269531 119.65625 145.535156 120.660156 145.109375 C 121.789062 144.628906 122.683594 143.976562 123.496094 143.105469 C 124.261719 142.289062 124.460938 142.253906 125.546875 142.296875 C 126.941406 142.347656 127.777344 143 127.96875 144.175781 C 128.238281 145.828125 127.789062 147.011719 126.386719 147.335938 C 124.171875 147.84375 122.855469 149.527344 121.222656 150.808594 C 121.035156 150.953125 120.894531 151.183594 120.6875 151.269531 C 118.242188 152.3125 116.492188 154.535156 113.871094 155.292969 C 113.609375 155.371094 113.390625 155.628906 113.167969 155.816406 C 111.449219 157.261719 109.648438 158.605469 108.113281 160.277344 Z M 121.777344 187.3125 C 121.070312 187.980469 120.308594 188.523438 119.339844 188.625 C 118.285156 188.652344 117.449219 188.117188 117.082031 187.203125 C 116.710938 186.261719 116.851562 185.179688 117.605469 184.605469 C 117.992188 184.3125 118.21875 183.878906 118.640625 183.65625 C 121.519531 182.125 123.613281 179.480469 126.558594 178.03125 C 126.664062 177.984375 126.785156 177.925781 126.851562 177.832031 C 128.429688 175.585938 131.0625 174.917969 133.238281 173.570312 C 133.53125 173.390625 133.886719 173.347656 134.136719 173.042969 C 135.699219 171.140625 137.984375 170.34375 140.058594 169.257812 C 140.960938 168.78125 141.914062 168.902344 142.675781 169.707031 C 143.464844 170.542969 143.535156 171.332031 142.828125 172.261719 C 141.21875 174.382812 139.304688 176.058594 136.632812 176.753906 C 135.496094 177.050781 134.578125 177.867188 133.707031 178.628906 C 132.589844 179.609375 131.398438 180.453125 130.03125 181.042969 C 129.589844 181.230469 129.25 181.546875 128.871094 181.832031 C 127.136719 183.125 125.578125 184.667969 123.609375 185.636719 C 122.847656 186.011719 122.386719 186.75 121.777344 187.3125 Z M 121.777344 187.3125 "/></g></g></svg>