<svg xmlns="http://www.w3.org/2000/svg" version="1.1" xmlns:xlink="http://www.w3.org/1999/xlink" width="1000" height="1000"><g clip-path="url(#SvgjsClipPath1273)"><rect width="1000" height="1000" fill="#022d94"></rect><g transform="matrix(0.3175723359209598,0,0,0.3175723359209598,50,389.484827099506)"><svg xmlns="http://www.w3.org/2000/svg" version="1.1" xmlns:xlink="http://www.w3.org/1999/xlink" width="2834" height="696"><svg xmlns="http://www.w3.org/2000/svg" version="1.1" viewBox="0 0 2834 696">
  <defs>
    <style>
      .cls-1 {
        fill: #fff;
      }
    </style>
  <clipPath id="SvgjsClipPath1273"><rect width="1000" height="1000" x="0" y="0" rx="150" ry="150"></rect></clipPath></defs>
  <!-- Generator: Adobe Illustrator 28.6.0, SVG Export Plug-In . SVG Version: 1.2.0 Build 709)  -->
  <g>
    <g id="CHECK24_Kopie_Kopie">
      <g>
        <path class="cls-1" d="M175.2,451.9h-.1c-46.5,0-94.7-1.1-126.3-14.6-16.4-7-27.8-16.3-35.8-29.4-8.9-14.4-13.2-33.1-13.2-56.9s2.6-39.6,7.7-63.6c1.2-5.5,28.6-133.8,30.4-140.6,7.3-26.7,16.4-48.8,28-67.2,20-31.8,46.7-52.3,84-64.5C180.9,5,220.5.4,277.9.4h.5c30.2,0,55,2.2,75.9,6.5,24.6,5.2,43.4,13.7,55.9,25,9.1,8.3,15.3,19.2,17.9,31.2,1.3,6.7,2,13.4,1.9,20.3,0,17-3.5,34.9-6.2,49.1-.4,2.2-.8,4.1-1.2,6.1v.6h-111.3v-.8c.1,0,.5-3.4.6-4.9,0-.1.5-4.6.5-11,0-9.7-4.6-17.3-13.8-23.1-7.3-4.2-16.8-5.6-25.8-6.7-10.2-1.1-20.4-1.4-30.6-1.3-18.7,0-32.8,1.4-44.5,4.7-8.5,2.2-16.4,6-23.5,11.1-9.2,7-16.4,17-21.9,30.7-5.2,12.7-8.9,27.9-12.9,46.7l-15,71.9c-4.9,23.1-8.4,40.6-8.4,55.7s1.2,15.6,3.7,21.7c4,9.7,12.3,17.3,23.7,21.3,10.9,4,24.8,5.8,44.9,5.8s24.5-.2,34.5-1.4c17.4-2,29.8-7.3,39.2-16.4,10.2-9.8,17-24.5,21.6-45.9l1.6-7.3h110v.7c0,.8-6.2,29.7-9.5,41.3-2.9,10.8-6.6,21.2-11.1,31.4-10.7,23.3-25.5,41.2-46.9,56.5-20.6,14.4-42.5,23.3-69,27.9-22.8,4-46.1,4.3-72,4.3,0,0-10.1-.1-11.4-.1Z"></path>
        <path class="cls-1" d="M1407.6,451.9h0c-46.6,0-94.8-1.1-126.4-14.6-16.4-7-27.8-16.3-35.8-29.4-8.9-14.4-13.2-33.1-13.2-56.9s2.6-39.6,7.7-63.6c1.2-5.5,28.6-133.8,30.4-140.6,7.2-26.7,16.4-48.8,28-67.2,20-31.8,46.7-52.3,84-64.5,31-10.1,70.6-14.6,128-14.6h.5c30.2,0,55,2.2,75.9,6.5,24.6,5.2,43.4,13.7,55.9,25,9.1,8.3,15.3,19.2,17.9,31.2,1.3,6.7,2,13.4,1.9,20.3,0,17-3.5,34.9-6.2,49.3-.4,2-.8,4.1-1.2,6.1v.6h-111.3v-.8c.1,0,.5-3.4.6-4.9,0-.1.5-4.6.5-11,0-9.7-4.6-17.3-13.8-23.1-7.3-4.2-16.8-5.6-25.8-6.7-10.2-1.1-20.4-1.4-30.6-1.3-18.7,0-32.8,1.4-44.5,4.7-8.5,2.2-16.4,6-23.5,11.1-9.2,7-16.4,17-21.9,30.7-5.2,12.7-8.9,27.9-12.9,46.7l-15.2,71.7c-4.9,23.1-8.4,40.6-8.4,55.7s1.2,15.6,3.7,21.7c4,9.7,12.3,17.3,23.7,21.3,10.9,4,24.8,5.8,44.9,5.8s24.5-.2,34.5-1.4c17.4-2,29.8-7.3,39.2-16.4,10.2-9.8,17-24.5,21.6-45.9l1.6-7.3h110v.7c0,.8-6.2,29.7-9.5,41.3-2.9,10.8-6.6,21.2-11.1,31.4-10.7,23.4-25.5,41.2-46.9,56.5-20.6,14.4-42.5,23.3-69,27.9-22.8,4-81.9,4.3-83.2,4.3Z"></path>
        <path class="cls-1" d="M1168.9,448.3h-320l.2-.8L938.6,26.3c1.6-7.8,4.4-13.1,9.1-16.7,4.8-3.7,11.4-5.5,20.1-5.5h270c6.7,0,11.5,1.6,14.4,4.4,2.3,2.6,3.5,6,3.4,9.5v.4c0,1.7-.2,3.4-.6,4.9l-13.9,65.7h-209l-18.1,87.1h196.2l-17.9,82.1h-196.2l-22.3,105.1h213.3l-18.3,85Z"></path>
        <path class="cls-1" d="M1742.7,448.3h-106.7l.2-.8,89.2-419.6c2.2-9.1,5.5-15.3,10.5-19.2,4-3,9-4.4,15.5-4.4h63.2c6.8,0,11.9,1.6,15.1,4.7,2.6,2.8,4,6.4,3.8,10.2,0,1.3-.1,2.6-.4,4l-90.5,425.2Z"></path>
        <path class="cls-1" d="M2036.5,448.3h-134.5l-.2-.5-99.6-230.4.4-.4,172.2-187c10.7-11.6,16.9-17.5,22.5-21,6-3.7,11.3-5,19.9-5h86.8c2.9-.1,5.8.7,8,2.5.7.6,1.3,1.3,1.8,2.2.4.6.5,1.2.5,1.8h.1v1.4c-.2,1.8-1.2,4.8-4.8,8.7l-185.9,199.8,112.8,227.7Z"></path>
        <path class="cls-1" d="M687.4,448.3h-.8l.2-.8,37.9-179.4h-175.8l-38.4,180.3h-106.7l.2-.8c3.6-17,88.3-417.1,88.9-419.4,3.1-13.2,8.4-17.7,12.6-20.1,4.6-2.6,10.9-3.8,19.9-3.8h57.7c4.2.2,8.2,1.6,11.6,4,4.1,2.8,6.5,7.3,6.4,12.2,0,1.3-.1,2.5-.4,3.8-.5,2.5-29.7,139.3-32.6,152.8h175.9c14.3-67.5,31.4-147.9,31.6-148.9,3.1-13.2,8.4-17.7,12.6-20.1,4.6-2.6,10.9-3.8,19.9-3.8h57.7c4.2.2,8.2,1.6,11.6,4,4.1,2.8,6.5,7.3,6.4,12.2,0,1.3-.1,2.5-.4,3.8-.5,2.6-86.4,406.3-90.1,423.6v.6c-.1,0-106,0-106,0Z"></path>
        <path class="cls-1" d="M2351.1,90.9c8.3,2.2,14.7,6.2,18.2,13.1h0c2.4,5,3.5,10.5,3.4,16.2h0c-.2,7.7-1.2,15.3-2.9,22.9h0c-2.5,11.6-4.9,21.2-8.6,29.5h0c-3.5,8.2-9.1,15.3-16.1,20.9h0c-14.6,11.5-37.4,18.5-77.8,27.6h0c-53.5,11.9-90.3,21.7-116.3,34.6h0c-26,12.9-41.1,28.4-52.5,52.9h0c-7.6,16.3-13.3,36.7-18.8,62.4h0l-15.1,76.7h346l16.2-77.7h-240.8s3.7-18.7,6.8-25.5h0c4-8.9,9.1-15.5,15.8-20.4h0c6.7-4.9,14.9-8.2,24.7-10.9h0c19.8-5.5,47.1-9.2,87.3-19.4h0c49.5-12.8,82.9-26.8,106.6-49.5h0c23.6-22.7,38-54.5,48.5-104.5h0c4-18.5,6.1-36.7,6.1-50.5h0c0-19.8-3.8-35-10.7-46.6h0c-6.8-11.6-16.7-20-29.6-26.2h0c-25.6-12.3-63.4-15.2-108.1-15.2h0c-56.9,0-101.8,5.9-135.1,26.4h0c-33.3,20.4-56.5,57.5-69.4,118.1h0l-3.6,17.1h105.2l4.1-18.9c4.1-18.1,7.9-30.4,14.7-39.2h0c6.8-8.9,16.8-13.1,30.2-14.7h0c9.1-1.2,20-1.4,33.6-1.4h6.2c13.1-.2,23.4.4,31.6,2.5h0Z"></path>
        <path class="cls-1" d="M2641.4,48.1c-12.2,12.7-114.9,120.1-157,164.2-8.4,9-17.4,18.9-21.3,27.2-3.2,6-7.4,22.7-9.6,34.5-4.4,24.8-7.8,47.5-9.8,56.7-.5,2.2-.7,4.4-.7,6.6-.1,6.4,2.6,12.5,7.6,16.4,4.4,3.5,9.9,5.4,15.6,5.3h203.9l-18.8,88.6,107.3-10.2,16.7-78.5h38.4l16.7-78.5h-38.4s38.4-179.1,39.6-185.8c13.2-72.5-16.9-93.7-84.7-93.7-17.3.4-56.5-3.2-105.1,47.2ZM2686.5,280.6h-154l183.3-189.8h11.1l-40.4,189.8Z"></path>
        <path class="cls-1" d="M2401.2,695.6h0c-69.3,0-135.8-18.5-192.4-53.5-55.6-34.3-88-74.8-103.3-97.7l-20.3,52.1c-2.2,5.8-8.6,8.6-14.4,6.4-4.2-1.7-7.1-5.6-7.1-10.2l-1.1-102.2h0c0-3,1.2-5.8,3.2-7.7,2.2-2,4.9-3.2,7.9-3.2h104.2c5.2.1,9.6,4,10.5,9,.1.7.2,1.3.2,2,0,4.6-2.9,8.6-7.1,10.3l-50.7,19.7c44.5,39.7,136.2,103.4,264.9,103.4s22.2-.5,33.2-1.4c54.5-4.7,108-17.6,158.4-38.6,43.3-18.1,81.4-41.1,110.5-66.8l-52.4-15.5c-4.7-1.3-8-5.6-8-10.5v-1.1c.6-5.3,4.8-9.5,10.1-9.9l101.5-9.2c.5,0,.8-.1,1.1-.1,2.5,0,5,.8,7.1,2.5,2.3,1.9,3.7,4.6,4,7.6q8.4,99.8,8.4,100.2c0,5-3.4,9.3-8.2,10.7-1,.2-1.9.4-2.9.4-4.2,0-8.2-2.4-10.1-6.1l-24.6-47c-19.7,26.6-53.9,64.1-107.6,96.7-54.4,33.1-115.2,52.7-180.6,58.2l-6.6.6h0c-9.2.6-18.7,1-28,1Z"></path>
      </g>
    </g>
  </g>
</svg></svg></g></g></svg>